<svg width="137" height="41" viewBox="0 0 137 41" fill="none" xmlns="http://www.w3.org/2000/svg">
<mask id="mask0_1_629" style="mask-type:luminance" maskUnits="userSpaceOnUse" x="0" y="0" width="137" height="41">
<path d="M0 0.90625H137V40.9062H0V0.90625Z" fill="white"/>
</mask>
<g mask="url(#mask0_1_629)">
<path d="M132 0.90625H5C3.67392 0.90625 2.40215 1.43303 1.46447 2.37072C0.526784 3.3084 0 4.58017 0 5.90625L0 35.9062C0 37.2323 0.526784 38.5041 1.46447 39.4418C2.40215 40.3795 3.67392 40.9062 5 40.9062H132C133.326 40.9062 134.598 40.3795 135.536 39.4418C136.473 38.5041 137 37.2323 137 35.9062V5.90625C137 4.58017 136.473 3.3084 135.536 2.37072C134.598 1.43303 133.326 0.90625 132 0.90625Z" fill="black"/>
<path d="M132 1.70625C133.114 1.70625 134.182 2.14875 134.97 2.9364C135.758 3.72405 136.2 4.79234 136.2 5.90625V35.9062C136.2 36.4579 136.092 37.0041 135.881 37.5138C135.67 38.0235 135.36 38.4866 134.97 38.8767C134.58 39.2667 134.117 39.5761 133.608 39.7871C133.098 39.9981 132.552 40.1065 132 40.1063H5C3.88609 40.1063 2.8178 39.6637 2.03015 38.8761C1.2425 38.0884 0.8 37.0202 0.8 35.9062V5.90625C0.8 4.79234 1.2425 3.72405 2.03015 2.9364C2.8178 2.14875 3.88609 1.70625 5 1.70625H132ZM132 0.90625H5C3.67392 0.90625 2.40215 1.43303 1.46447 2.37072C0.526784 3.3084 0 4.58017 0 5.90625L0 35.9062C0 37.2323 0.526784 38.5041 1.46447 39.4418C2.40215 40.3795 3.67392 40.9062 5 40.9062H132C133.326 40.9057 134.597 40.3788 135.535 39.4412C136.473 38.5036 136.999 37.2322 137 35.9062V5.90625C136.999 4.58033 136.473 3.30887 135.535 2.3713C134.597 1.43373 133.326 0.90678 132 0.90625Z" fill="#A6A6A6"/>
<path fill-rule="evenodd" clip-rule="evenodd" d="M40.5701 31.1562C37.1879 33.4466 33.1948 34.6661 29.1101 34.6562C23.9417 34.6792 18.9503 32.7753 15.1101 29.3162C14.8201 29.0562 15.1101 28.6962 15.4301 28.8962C19.692 31.3371 24.5187 32.6197 29.4301 32.6162C33.0998 32.5991 36.7298 31.8547 40.1101 30.4262C40.6401 30.2062 41.0801 30.7762 40.5701 31.1562Z" fill="white"/>
<path fill-rule="evenodd" clip-rule="evenodd" d="M41.85 29.6863C41.46 29.1763 39.24 29.4363 38.24 29.5563C37.94 29.5563 37.89 29.3363 38.16 29.1463C39.93 27.8963 42.84 28.2563 43.16 28.6763C43.48 29.0963 43.07 32.0063 41.41 33.3963C41.15 33.6063 40.91 33.4963 41.02 33.2163C41.41 32.2763 42.25 30.1863 41.85 29.6863ZM38.31 20.3463V19.1363C38.31 19.0956 38.318 19.0553 38.3336 19.0177C38.3492 18.98 38.372 18.9459 38.4008 18.9171C38.4296 18.8883 38.4637 18.8655 38.5014 18.8499C38.539 18.8343 38.5793 18.8263 38.62 18.8263H44C44.0822 18.8263 44.1611 18.859 44.2192 18.9171C44.2773 18.9752 44.31 19.0541 44.31 19.1363V20.1363C44.2406 20.4205 44.0994 20.6822 43.9 20.8963L41.09 24.8963C42.1638 24.8345 43.2345 25.0625 44.19 25.5563C44.2743 25.6026 44.3447 25.6706 44.3939 25.7532C44.4431 25.8358 44.4694 25.9301 44.47 26.0263V27.3263C44.4703 27.374 44.4587 27.4211 44.4365 27.4633C44.4142 27.5056 44.3818 27.5416 44.3422 27.5683C44.3027 27.595 44.2571 27.6116 44.2096 27.6164C44.1621 27.6213 44.1142 27.6144 44.07 27.5963C43.1856 27.1402 42.205 26.9023 41.21 26.9023C40.215 26.9023 39.2344 27.1402 38.35 27.5963C38.16 27.6963 37.96 27.4963 37.96 27.3163V26.1463C37.9418 25.8558 38.0115 25.5666 38.16 25.3163L41.42 20.6463H38.62C38.5797 20.6478 38.5396 20.6411 38.502 20.6267C38.4643 20.6123 38.43 20.5904 38.4011 20.5624C38.3721 20.5343 38.3491 20.5008 38.3335 20.4636C38.3178 20.4265 38.3098 20.3866 38.31 20.3463ZM18.53 27.9063H16.88C16.8051 27.9022 16.734 27.8719 16.6792 27.8207C16.6244 27.7695 16.5893 27.7007 16.58 27.6263V19.1563C16.58 19.116 16.588 19.0762 16.6037 19.0391C16.6194 19.0021 16.6424 18.9685 16.6714 18.9405C16.7003 18.9126 16.7346 18.8907 16.7721 18.8762C16.8097 18.8617 16.8498 18.855 16.89 18.8563H18.43C18.5062 18.8561 18.5796 18.885 18.6354 18.937C18.6911 18.989 18.7249 19.0602 18.73 19.1363V20.2363C18.88 19.7832 19.1689 19.389 19.5558 19.1095C19.9426 18.8301 20.4078 18.6796 20.885 18.6796C21.3622 18.6796 21.8273 18.8301 22.2142 19.1095C22.6011 19.389 22.89 19.7832 23.04 20.2363C23.1944 19.8345 23.4523 19.4807 23.7876 19.2109C24.1229 18.941 24.5237 18.7646 24.9491 18.6996C25.3746 18.6346 25.8097 18.6833 26.2103 18.8408C26.6109 18.9983 26.9627 19.2589 27.23 19.5963C27.6352 20.4203 27.7816 21.3476 27.65 22.2563V27.5963C27.6474 27.6794 27.6125 27.7583 27.5528 27.8161C27.4931 27.874 27.4132 27.9063 27.33 27.9063H25.72C25.6403 27.9013 25.5654 27.8668 25.5099 27.8094C25.4544 27.7521 25.4223 27.6761 25.42 27.5963V23.1063C25.455 22.5803 25.455 22.0523 25.42 21.5263C25.4032 21.4123 25.3639 21.3027 25.3043 21.2041C25.2447 21.1054 25.1661 21.0196 25.073 20.9516C24.9799 20.8837 24.8743 20.835 24.7621 20.8083C24.65 20.7816 24.5337 20.7775 24.42 20.7963C24.2036 20.7991 23.993 20.8662 23.8149 20.989C23.6369 21.1119 23.4994 21.285 23.42 21.4863C23.2838 22.0148 23.2332 22.5617 23.27 23.1063V27.5963C23.2706 27.672 23.2435 27.7454 23.1938 27.8025C23.144 27.8596 23.0751 27.8965 23 27.9063H21.3C21.2221 27.899 21.1496 27.8634 21.0962 27.8063C21.0428 27.7492 21.0121 27.6745 21.01 27.5963V23.1063C21.01 22.1663 21.17 20.7763 20.01 20.7763C18.85 20.7763 18.87 22.1263 18.87 23.1063V27.5963C18.8702 27.6397 18.8613 27.6826 18.8439 27.7223C18.8265 27.762 18.8009 27.7976 18.7689 27.8268C18.7368 27.856 18.699 27.8782 18.6579 27.8919C18.6167 27.9056 18.5731 27.9105 18.53 27.9063ZM49 18.6763C51.45 18.6763 52.77 20.7763 52.77 23.4463C52.77 26.1163 51.33 28.0763 49 28.0763C46.67 28.0763 45.29 25.9763 45.29 23.3563C45.29 20.7363 46.63 18.6763 49 18.6763ZM49 20.4063C47.79 20.4063 47.71 22.0563 47.71 23.0963C47.71 24.1363 47.71 26.3363 48.99 26.3363C50.27 26.3363 50.33 24.5563 50.33 23.4663C50.3574 22.7081 50.2731 21.95 50.08 21.2163C50.0337 20.9708 49.8972 20.7515 49.6973 20.6015C49.4974 20.4516 49.2487 20.382 49 20.4063ZM56 27.9063H54.32C54.2421 27.899 54.1696 27.8634 54.1162 27.8063C54.0628 27.7492 54.0321 27.6745 54.03 27.5963V19.1263C54.042 19.0504 54.0809 18.9813 54.1397 18.9317C54.1985 18.8821 54.2731 18.8553 54.35 18.8563H55.88C55.9476 18.8548 56.0135 18.877 56.0665 18.919C56.1194 18.961 56.156 19.0202 56.17 19.0863V20.3863C56.2894 19.887 56.5775 19.4442 56.9856 19.1326C57.3937 18.8211 57.8968 18.6599 58.41 18.6763C58.7914 18.6575 59.1709 18.7402 59.5099 18.9158C59.849 19.0915 60.1354 19.3539 60.34 19.6763C60.702 20.5063 60.85 21.4143 60.77 22.3163V27.6463C60.758 27.7222 60.719 27.7913 60.6603 27.8409C60.6015 27.8905 60.5269 27.9172 60.45 27.9163H58.83C58.7577 27.9122 58.6892 27.883 58.6362 27.8337C58.5833 27.7844 58.5492 27.7181 58.54 27.6463V23.0463C58.54 22.1263 58.64 20.7663 57.54 20.7663C57.3242 20.7656 57.1132 20.8301 56.9347 20.9515C56.7562 21.0728 56.6187 21.2453 56.54 21.4463C56.3384 21.9545 56.2497 22.5004 56.28 23.0463V27.6063C56.274 27.6806 56.2431 27.7506 56.1923 27.8051C56.1415 27.8596 56.0737 27.8952 56 27.9063ZM34 23.9063C34.0607 24.5071 33.9534 25.1129 33.69 25.6563C33.5854 25.8726 33.4242 26.0566 33.2235 26.1886C33.0228 26.3207 32.79 26.3959 32.55 26.4063C31.91 26.4063 31.55 25.9263 31.55 25.2163C31.55 23.8063 32.81 23.5563 34.01 23.5563L34 23.9063ZM35.66 27.9063C35.6034 27.9477 35.5351 27.9701 35.465 27.9701C35.3949 27.9701 35.3266 27.9477 35.27 27.9063C34.8865 27.6031 34.5641 27.2298 34.32 26.8063C33.9959 27.2095 33.5796 27.529 33.1063 27.7378C32.6329 27.9467 32.1163 28.0387 31.6 28.0063C31.2625 28.025 30.925 27.9704 30.6106 27.8463C30.2962 27.7222 30.0124 27.5315 29.7787 27.2873C29.5449 27.0431 29.3668 26.7513 29.2566 26.4318C29.1463 26.1122 29.1066 25.7726 29.14 25.4363C29.1179 24.862 29.2743 24.295 29.5877 23.8133C29.901 23.3316 30.356 22.9588 30.89 22.7463C31.8949 22.4117 32.9418 22.2198 34 22.1763V21.9663C34.0508 21.5554 33.9813 21.1385 33.8 20.7663C33.6898 20.6264 33.5481 20.5146 33.3865 20.4398C33.2249 20.3651 33.0479 20.3296 32.87 20.3363C32.5651 20.315 32.2627 20.4044 32.0184 20.5881C31.7741 20.7718 31.6042 21.0375 31.54 21.3363C31.5324 21.41 31.5009 21.4791 31.4504 21.5333C31.3998 21.5874 31.333 21.6236 31.26 21.6363L29.66 21.4663C29.6197 21.4616 29.5809 21.4486 29.546 21.428C29.5111 21.4074 29.4809 21.3797 29.4573 21.3468C29.4338 21.3138 29.4174 21.2762 29.4092 21.2365C29.4011 21.1968 29.4013 21.1559 29.41 21.1163C29.78 19.1763 31.53 18.5963 33.1 18.5963C34.0015 18.5621 34.8852 18.8531 35.59 19.4163C36.39 20.1663 36.31 21.1663 36.31 22.2563V24.8263C36.3159 25.3934 36.5376 25.9369 36.93 26.3463C36.959 26.3751 36.9821 26.4094 36.9978 26.4471C37.0135 26.4849 37.0216 26.5254 37.0216 26.5663C37.0216 26.6072 37.0135 26.6477 36.9978 26.6854C36.9821 26.7232 36.959 26.7575 36.93 26.7863L35.65 27.9063H35.66ZM12.36 23.9063C12.4256 24.5073 12.3181 25.1145 12.05 25.6563C11.9454 25.8726 11.7842 26.0566 11.5835 26.1886C11.3828 26.3207 11.15 26.3959 10.91 26.4063C10.28 26.4063 9.90999 25.9263 9.90999 25.2163C9.90999 23.8063 11.17 23.5563 12.36 23.5563V23.9063ZM14 27.9063C13.9434 27.9477 13.8751 27.9701 13.805 27.9701C13.7349 27.9701 13.6666 27.9477 13.61 27.9063C13.2324 27.5998 12.9138 27.2271 12.67 26.8063C12.3503 27.2024 11.9423 27.5182 11.4787 27.7283C11.015 27.9384 10.5086 28.0371 9.99999 28.0163C9.6591 28.0418 9.31676 27.9922 8.99711 27.871C8.67746 27.7498 8.38827 27.5601 8.14991 27.315C7.91155 27.07 7.72982 26.7757 7.61753 26.4528C7.50524 26.1299 7.46512 25.7864 7.49999 25.4463C7.4801 24.8711 7.63855 24.3039 7.95364 23.8223C8.26872 23.3408 8.72501 22.9684 9.25999 22.7563C10.26 22.4173 11.305 22.2223 12.36 22.1763V21.9663C12.4108 21.5554 12.3413 21.1385 12.16 20.7663C12.0504 20.6258 11.9088 20.5135 11.747 20.4387C11.5853 20.3639 11.408 20.3288 11.23 20.3363C10.9263 20.3154 10.6253 20.4052 10.3826 20.589C10.14 20.7728 9.97209 21.0383 9.90999 21.3363C9.89879 21.4102 9.86485 21.4788 9.81288 21.5326C9.76092 21.5864 9.6935 21.6226 9.61999 21.6363L7.99999 21.4663C7.96062 21.4604 7.92288 21.4464 7.88914 21.4253C7.85539 21.4042 7.82636 21.3763 7.80385 21.3435C7.78133 21.3107 7.76582 21.2736 7.75827 21.2345C7.75073 21.1954 7.75131 21.1551 7.75999 21.1163C8.11999 19.1763 9.87999 18.5963 11.45 18.5963C12.3487 18.56 13.2301 18.8514 13.93 19.4163C14.73 20.1663 14.66 21.1663 14.66 22.2563V24.8263C14.6659 25.3934 14.8876 25.9369 15.28 26.3463C15.38 26.4963 15.41 26.6763 15.28 26.7863L14 27.9063Z" fill="white"/>
<path d="M67.4899 27.9962C67.1333 28.012 66.7771 27.9565 66.4423 27.8328C66.1074 27.7092 65.8006 27.5199 65.5399 27.2762C65.2902 27.0328 65.0944 26.7397 64.9652 26.4158C64.836 26.0919 64.7763 25.7446 64.7899 25.3962C64.7781 25.0144 64.8551 24.635 65.0147 24.288C65.1744 23.941 65.4123 23.6357 65.7099 23.3962C66.4168 22.8574 67.2924 22.588 68.1799 22.6362C68.8539 22.6462 69.5249 22.7342 70.1799 22.8962V21.8962C70.2027 21.6777 70.1807 21.4568 70.1154 21.2471C70.0501 21.0373 69.9427 20.8431 69.7999 20.6762C69.4105 20.4095 68.9394 20.289 68.4699 20.3362C68.0475 20.3365 67.6259 20.3733 67.2099 20.4462C66.7679 20.5139 66.3328 20.6209 65.9099 20.7662C65.8121 20.7943 65.7115 20.811 65.6099 20.8162C65.4599 20.8162 65.3899 20.7062 65.3899 20.4862V19.8462C65.3786 19.7284 65.403 19.6099 65.4599 19.5062C65.5581 19.3997 65.6821 19.3205 65.8199 19.2762C66.78 18.9232 67.797 18.7503 68.8199 18.7662C69.7052 18.6965 70.5867 18.9408 71.3099 19.4562C71.5934 19.7335 71.8121 20.07 71.9504 20.4417C72.0887 20.8133 72.1431 21.211 72.1099 21.6062V27.4162C72.1168 27.4673 72.1116 27.5193 72.0948 27.568C72.078 27.6168 72.05 27.6609 72.0131 27.6969C71.9761 27.7328 71.9313 27.7597 71.8821 27.7752C71.8329 27.7907 71.7808 27.7944 71.7299 27.7862H70.7999C70.5399 27.7862 70.3999 27.6762 70.3699 27.4462L70.2799 26.9462C69.8935 27.2619 69.4621 27.5181 68.9999 27.7062C68.5213 27.9037 68.0076 28.0023 67.4899 27.9962ZM68.0599 26.5562C68.4034 26.5407 68.7416 26.4663 69.0599 26.3362C69.4431 26.1834 69.8032 25.9781 70.1299 25.7262V24.0762C69.6136 23.9668 69.0876 23.9099 68.5599 23.9062C67.3599 23.9062 66.7699 24.3662 66.7699 25.2962C66.7588 25.4678 66.7833 25.6399 66.8418 25.8016C66.9003 25.9634 66.9916 26.1113 67.1099 26.2362C67.3729 26.4632 67.7139 26.5772 68.0599 26.5562ZM74.2999 31.2862C74.2481 31.2944 74.1951 31.2902 74.1453 31.2741C74.0954 31.2579 74.0501 31.2301 74.013 31.193C73.9759 31.156 73.9482 31.1106 73.932 31.0608C73.9158 31.0109 73.9116 30.9579 73.9199 30.9062V19.3562C73.911 19.3043 73.9146 19.251 73.9306 19.2008C73.9465 19.1506 73.9743 19.105 74.0115 19.0678C74.0487 19.0305 74.0943 19.0028 74.1445 18.9868C74.1947 18.9709 74.248 18.9672 74.2999 18.9762H75.2999C75.3512 18.9692 75.4033 18.9724 75.4533 18.9858C75.5033 18.9991 75.5502 19.0223 75.5911 19.054C75.6321 19.0856 75.6663 19.1251 75.6919 19.1701C75.7174 19.2151 75.7337 19.2648 75.7399 19.3162L75.8499 19.8462C76.2408 19.4907 76.691 19.2065 77.1799 19.0062C77.6673 18.815 78.1863 18.7166 78.7099 18.7162C79.1994 18.704 79.6851 18.8051 80.1292 19.0115C80.5732 19.2179 80.9636 19.5241 81.2699 19.9062C81.9718 20.8551 82.325 22.0171 82.2699 23.1962C82.2868 24.0529 82.1268 24.904 81.7999 25.6962C81.5222 26.3557 81.0648 26.9239 80.4799 27.3362C79.9066 27.7108 79.2346 27.9058 78.5499 27.8962C78.0719 27.8984 77.5975 27.8137 77.1499 27.6462C76.7292 27.4988 76.3393 27.275 75.9999 26.9862V30.9062C76.0088 30.958 76.0051 31.0113 75.9892 31.0615C75.9733 31.1117 75.9455 31.1573 75.9083 31.1946C75.871 31.2318 75.8254 31.2595 75.7752 31.2755C75.725 31.2914 75.6718 31.2951 75.6199 31.2862H74.2999ZM77.9999 26.2862C78.3142 26.3086 78.6291 26.2517 78.9157 26.1206C79.2022 25.9896 79.4513 25.7886 79.6399 25.5362C80.0446 24.8479 80.2295 24.0524 80.1699 23.2562C80.2283 22.4708 80.047 21.6862 79.6499 21.0062C79.4544 20.7625 79.2009 20.5716 78.9127 20.4511C78.6245 20.3306 78.3107 20.2842 77.9999 20.3162C77.2595 20.3148 76.5366 20.5418 75.9299 20.9662V25.6562C76.5321 26.0919 77.2565 26.3263 77.9999 26.3262V26.2862ZM84.0799 31.2862C84.0281 31.2946 83.975 31.2906 83.925 31.2745C83.875 31.2584 83.8296 31.2307 83.7925 31.1935C83.7554 31.1564 83.7276 31.111 83.7115 31.061C83.6954 31.0111 83.6914 30.958 83.6999 30.9062V19.3562C83.6912 19.3043 83.695 19.2511 83.711 19.201C83.7271 19.151 83.7548 19.1055 83.792 19.0683C83.8292 19.0311 83.8747 19.0033 83.9248 18.9873C83.9748 18.9713 84.028 18.9675 84.0799 18.9762H85.0799C85.1842 18.9645 85.2889 18.9932 85.3726 19.0565C85.4563 19.1197 85.5126 19.2127 85.5299 19.3162L85.6299 19.8462C86.0249 19.4902 86.4779 19.2062 86.9699 19.0062C87.4539 18.8142 87.9699 18.7162 88.4899 18.7162C88.9794 18.704 89.4651 18.8051 89.9092 19.0115C90.3532 19.2179 90.7436 19.5241 91.0499 19.9062C91.7518 20.8551 92.105 22.0171 92.0499 23.1962C92.0719 24.0534 91.9117 24.9055 91.5799 25.6962C91.3022 26.3557 90.8448 26.9239 90.2599 27.3362C89.6798 27.7212 88.996 27.92 88.2999 27.9062C87.8252 27.9085 87.354 27.8238 86.9099 27.6562C86.4777 27.5067 86.0798 27.2721 85.7399 26.9662V30.9062C85.7486 30.958 85.7447 31.0112 85.7287 31.0613C85.7127 31.1113 85.6849 31.1569 85.6478 31.194C85.6106 31.2312 85.5651 31.259 85.515 31.275C85.4649 31.291 85.4117 31.2948 85.3599 31.2862H84.0799ZM87.7899 26.2862C88.1028 26.3087 88.4163 26.2517 88.7012 26.1206C88.9862 25.9894 89.2334 25.7884 89.4199 25.5362C89.8348 24.8651 90.037 24.0842 89.9999 23.2962C90.0553 22.5098 89.8705 21.7251 89.4699 21.0462C89.2813 20.7975 89.0331 20.6003 88.7482 20.4727C88.4634 20.3451 88.151 20.2913 87.8399 20.3162C87.1029 20.3162 86.3839 20.5432 85.7799 20.9662V25.6562C86.3643 26.0824 87.0666 26.3165 87.7899 26.3262V26.2862ZM95.8399 27.9962C94.9802 28.0033 94.1263 27.8543 93.3199 27.5562C93.1859 27.5148 93.0652 27.4389 92.9699 27.3362C92.9096 27.2225 92.882 27.0945 92.8899 26.9662V26.3462C92.8899 26.1162 92.9699 25.9962 93.1299 25.9962C93.2929 26.0162 93.4539 26.0522 93.6099 26.1062C94.3276 26.3198 95.0712 26.4342 95.8199 26.4462C96.2559 26.4752 96.6909 26.3852 97.0799 26.1862C97.2089 26.0935 97.3123 25.9698 97.3805 25.8264C97.4487 25.683 97.4794 25.5247 97.4699 25.3662C97.4759 25.2532 97.4575 25.1403 97.4161 25.0351C97.3747 24.9299 97.3112 24.8347 97.2299 24.7562C96.9675 24.5395 96.6651 24.3764 96.3399 24.2762L94.9099 23.7262C94.371 23.59 93.8919 23.2802 93.5467 22.8446C93.2015 22.409 93.0093 21.8719 92.9999 21.3162C92.9861 20.9515 93.0597 20.5887 93.2145 20.2582C93.3693 19.9277 93.6009 19.639 93.8899 19.4162C94.5873 18.9174 95.4336 18.6705 96.2899 18.7162C97.0213 18.7195 97.7473 18.841 98.4399 19.0762C98.5709 19.1062 98.6899 19.1762 98.7799 19.2762C98.8522 19.3926 98.8838 19.5298 98.8699 19.6662V20.2662C98.8762 20.3601 98.8554 20.4538 98.8099 20.5362C98.7826 20.5632 98.7495 20.5835 98.7131 20.5957C98.6766 20.6078 98.6379 20.6114 98.5999 20.6062C98.4515 20.5897 98.3045 20.563 98.1599 20.5262C97.5888 20.371 97.0014 20.2837 96.4099 20.2662C96.0066 20.2405 95.6035 20.3197 95.2399 20.4962C95.1197 20.5748 95.0222 20.6836 94.9573 20.8117C94.8924 20.9398 94.8622 21.0827 94.8699 21.2262C94.8655 21.3431 94.8875 21.4596 94.9342 21.5669C94.9809 21.6743 95.0512 21.7697 95.1399 21.8462C95.4459 22.0622 95.7829 22.2312 96.1399 22.3462L97.3999 22.9062C97.9699 23.0882 98.4839 23.4162 98.8899 23.8562C99.2079 24.2472 99.3719 24.7422 99.3499 25.2462C99.3597 25.6287 99.2808 26.0083 99.1195 26.3552C98.9581 26.7022 98.7187 27.0071 98.4199 27.2462C97.6721 27.7861 96.7606 28.0511 95.8399 27.9962ZM104.17 27.9062C103.447 27.9631 102.73 27.7373 102.17 27.2762C101.933 27.0129 101.753 26.7042 101.639 26.369C101.526 26.0338 101.482 25.679 101.51 25.3262V20.5262H100.41C100.332 20.5355 100.254 20.5181 100.188 20.4768C100.122 20.4355 100.072 20.3728 100.046 20.2992C100.029 20.2501 100.023 20.1977 100.03 20.1462V19.6462C100.018 19.5319 100.05 19.4174 100.12 19.3262C100.194 19.2557 100.289 19.2103 100.39 19.1962L101.58 19.0262L101.84 16.9362C101.841 16.8277 101.884 16.7238 101.96 16.6462C102.049 16.5797 102.159 16.5477 102.27 16.5562H103.17C103.221 16.55 103.273 16.5557 103.322 16.5726C103.371 16.5895 103.416 16.6173 103.452 16.6539C103.489 16.6905 103.516 16.7349 103.533 16.7838C103.55 16.8327 103.556 16.8848 103.55 16.9362V18.9362H105.66C105.712 18.9275 105.765 18.9313 105.815 18.9473C105.865 18.9633 105.911 18.9911 105.948 19.0283C105.985 19.0654 106.013 19.111 106.029 19.161C106.045 19.2111 106.049 19.2643 106.04 19.3162V20.1062C106.049 20.158 106.045 20.2113 106.029 20.2615C106.013 20.3116 105.985 20.3572 105.948 20.3942C105.911 20.4313 105.865 20.4591 105.815 20.4751C105.765 20.4911 105.712 20.4949 105.66 20.4862H103.55V25.1362C103.531 25.2867 103.546 25.4396 103.594 25.5834C103.643 25.7272 103.723 25.8581 103.83 25.9662C104.121 26.17 104.477 26.2591 104.83 26.2162C105.041 26.2242 105.253 26.2062 105.46 26.1662C105.592 26.1382 105.725 26.1212 105.86 26.1162C106.05 26.1162 106.15 26.2262 106.15 26.4462V27.0662C106.163 27.1993 106.132 27.3331 106.06 27.4462C105.961 27.5433 105.836 27.6093 105.7 27.6362C105.204 27.7914 104.689 27.8822 104.17 27.9062ZM110.88 27.9962C110.302 28.0292 109.723 27.9363 109.185 27.7239C108.646 27.5116 108.16 27.1848 107.76 26.7662C106.965 25.8104 106.564 24.5872 106.64 23.3462C106.556 22.098 106.957 20.8656 107.76 19.9062C108.61 19.1221 109.724 18.6867 110.88 18.6867C112.036 18.6867 113.15 19.1221 114 19.9062C114.791 20.8604 115.191 22.0788 115.12 23.3162C115.199 24.5667 114.798 25.8003 114 26.7662C113.6 27.1849 113.114 27.5118 112.575 27.7242C112.036 27.9366 111.458 28.0294 110.88 27.9962ZM110.88 26.3962C112.32 26.3962 113.05 25.3962 113.05 23.3962C113.05 21.3962 112.32 20.3962 110.88 20.3962C109.44 20.3962 108.71 21.3962 108.71 23.3962C108.71 25.3962 109.43 26.3962 110.88 26.3962ZM116.94 27.7362C116.889 27.7444 116.837 27.7407 116.788 27.7252C116.738 27.7097 116.694 27.6828 116.657 27.6469C116.62 27.6109 116.592 27.5668 116.575 27.518C116.558 27.4693 116.553 27.4173 116.56 27.3662V19.3662C116.551 19.3143 116.554 19.261 116.57 19.2108C116.586 19.1607 116.614 19.1152 116.652 19.0782C116.689 19.041 116.735 19.0132 116.785 18.9972C116.835 18.9812 116.888 18.9774 116.94 18.9862H117.85C117.968 18.9735 118.087 18.998 118.19 19.0562C118.264 19.1191 118.311 19.2089 118.32 19.3062L118.53 20.3062C118.89 19.8722 119.327 19.5092 119.82 19.2362C120.225 19.0272 120.675 18.9212 121.13 18.9262H121.2C121.323 18.9092 121.447 18.9092 121.57 18.9262C121.653 18.9498 121.724 19.0032 121.77 19.0762C121.82 19.1962 121.84 19.3262 121.83 19.4562V20.3862C121.83 20.6262 121.73 20.7462 121.52 20.7462H120.85C120.047 20.7344 119.26 20.9644 118.59 21.4062V27.4062C118.59 27.6562 118.47 27.7762 118.21 27.7762L116.94 27.7362ZM126.7 27.9962C126.1 28.0384 125.499 27.9562 124.933 27.7549C124.366 27.5536 123.848 27.2374 123.41 26.8262C122.608 25.8781 122.206 24.6552 122.29 23.4162C122.216 22.1665 122.608 20.9337 123.39 19.9562C123.777 19.5364 124.252 19.2075 124.781 18.9931C125.31 18.7787 125.88 18.6841 126.45 18.7162C126.921 18.6857 127.394 18.7516 127.839 18.9098C128.285 19.068 128.693 19.3151 129.04 19.6362C129.355 19.9898 129.597 20.4027 129.752 20.8508C129.906 21.2988 129.97 21.7732 129.94 22.2462C129.937 22.6542 129.911 23.0612 129.86 23.4662C129.849 23.5773 129.804 23.6823 129.73 23.7662C129.66 23.8233 129.57 23.8519 129.48 23.8462H124.17C124.158 24.1986 124.217 24.5498 124.342 24.8795C124.467 25.2091 124.657 25.5105 124.9 25.7662C125.502 26.2195 126.249 26.4365 127 26.3762C127.734 26.3677 128.464 26.2601 129.17 26.0562L129.37 25.9962H129.5C129.67 25.9962 129.75 26.1062 129.75 26.3362V26.9062C129.761 27.0336 129.737 27.1616 129.68 27.2762C129.583 27.3816 129.458 27.4578 129.32 27.4962C128.487 27.8292 127.597 27.999 126.7 27.9962ZM128.15 22.4862V22.3462C128.191 21.7752 128.028 21.2082 127.69 20.7462C127.527 20.5568 127.321 20.4085 127.09 20.3129C126.859 20.2174 126.609 20.1774 126.36 20.1962C126.077 20.1861 125.795 20.2361 125.533 20.343C125.271 20.4499 125.035 20.6112 124.84 20.8162C124.43 21.2784 124.193 21.8687 124.17 22.4862H128.15ZM47.7099 13.5862C47.3411 13.5974 46.9825 13.4647 46.7099 13.2162C46.5777 13.0871 46.4752 12.9308 46.4095 12.7581C46.3439 12.5854 46.3167 12.4004 46.3299 12.2162C46.3279 12.0258 46.3681 11.8375 46.4477 11.6645C46.5272 11.4916 46.6441 11.3385 46.7899 11.2162C47.132 10.9396 47.56 10.7911 47.9999 10.7962C48.3849 10.8062 48.7669 10.8592 49.1399 10.9562V10.3562C49.1849 10.1199 49.1346 9.87542 48.9999 9.67616C48.781 9.52381 48.5156 9.45304 48.2499 9.47616C47.8265 9.47266 47.4051 9.53335 46.9999 9.65616L46.7399 9.71616C46.6699 9.71616 46.6299 9.66616 46.6299 9.55616V9.31616C46.61 9.26123 46.61 9.20108 46.6299 9.14616C46.6644 9.09845 46.7136 9.06333 46.7699 9.04616C46.9979 8.95216 47.2359 8.88616 47.4799 8.84616C47.7599 8.79516 48.0449 8.76816 48.3299 8.76616C48.7796 8.72933 49.2275 8.85728 49.5899 9.12616C49.7344 9.2642 49.8463 9.43283 49.9172 9.61971C49.9882 9.80658 50.0164 10.007 49.9999 10.2062V13.2862C50.0032 13.3106 50.0008 13.3354 49.9929 13.3588C49.985 13.3821 49.9719 13.4033 49.9545 13.4207C49.937 13.4382 49.9158 13.4513 49.8925 13.4592C49.8691 13.4671 49.8443 13.4695 49.8199 13.4662H49.4399C49.4154 13.4689 49.3907 13.4666 49.3672 13.4595C49.3436 13.4523 49.3218 13.4404 49.3031 13.4244C49.2843 13.4085 49.2691 13.3889 49.2582 13.3668C49.2473 13.3448 49.2411 13.3207 49.2399 13.2962V12.9962C49.0319 13.1822 48.7911 13.3281 48.5299 13.4262C48.2699 13.5322 47.9909 13.5862 47.7099 13.5862ZM47.9299 12.9062C48.1419 12.9022 48.3519 12.8622 48.5499 12.7862C48.7729 12.7062 48.9829 12.5912 49.1699 12.4462V11.5262C48.8416 11.4527 48.5063 11.4158 48.1699 11.4162C47.4999 11.4162 47.1699 11.6762 47.1699 12.1962C47.1631 12.2928 47.1764 12.3899 47.2092 12.4811C47.2419 12.5724 47.2932 12.6558 47.3599 12.7262C47.4368 12.7947 47.5274 12.8461 47.6256 12.8772C47.7239 12.9082 47.8275 12.9181 47.9299 12.9062ZM52.4799 13.4662C52.4215 13.486 52.3582 13.486 52.2999 13.4662C52.2999 13.4662 52.2199 13.3762 52.1699 13.2562L50.5799 9.25616C50.5841 9.21961 50.5841 9.1827 50.5799 9.14616C50.5753 9.11298 50.5753 9.07933 50.5799 9.04616C50.5799 8.96616 50.5799 8.93616 50.7099 8.93616H51.2399C51.3023 8.92128 51.3674 8.92128 51.4299 8.93616C51.4896 8.99288 51.5313 9.0659 51.5499 9.14616L52.7799 12.6562L53.9999 9.14616C54.0041 9.06178 54.0281 8.97958 54.0699 8.90616C54.1325 8.89232 54.1973 8.89232 54.2599 8.90616H54.7599C54.8499 8.90616 54.8899 8.90616 54.8899 9.01616C54.8946 9.04932 54.8946 9.08299 54.8899 9.11616C54.8858 9.15271 54.8858 9.1896 54.8899 9.22616L53.3099 13.2262C53.3099 13.3462 53.2199 13.4162 53.1799 13.4362C53.1213 13.4546 53.0585 13.4546 52.9999 13.4362L52.4799 13.4662ZM56.6599 13.5862C56.2918 13.5933 55.9346 13.4612 55.6599 13.2162C55.4077 12.9385 55.2756 12.5723 55.2925 12.1976C55.3093 11.8229 55.4738 11.47 55.7499 11.2162C56.1008 10.9274 56.5458 10.7779 56.9999 10.7962C57.3819 10.8062 57.7599 10.8592 58.1299 10.9562V10.3562C58.1436 10.2337 58.131 10.1097 58.0931 9.99246C58.0552 9.87522 57.9927 9.76739 57.9099 9.67616C57.6925 9.52057 57.4259 9.44947 57.1599 9.47616C56.7499 9.47616 56.3419 9.53616 55.9499 9.65616L55.6899 9.71616C55.6099 9.71616 55.5799 9.66616 55.5799 9.55616V9.31616C55.5655 9.2604 55.5655 9.20191 55.5799 9.14616C55.6206 9.10064 55.6722 9.06623 55.7299 9.04616C55.9549 8.95216 56.1899 8.88616 56.4299 8.84616C56.7104 8.7953 56.9948 8.76854 57.2799 8.76616C57.7327 8.72962 58.1836 8.85742 58.5499 9.12616C58.7017 9.26043 58.821 9.42738 58.899 9.61445C58.9769 9.80152 59.0114 10.0038 58.9999 10.2062V13.2862C59.0032 13.3106 59.0008 13.3354 58.9929 13.3588C58.985 13.3821 58.9719 13.4033 58.9545 13.4207C58.937 13.4382 58.9158 13.4513 58.8925 13.4592C58.8691 13.4671 58.8443 13.4695 58.8199 13.4662H58.4299C58.3811 13.469 58.3331 13.4529 58.2958 13.4212C58.2586 13.3896 58.2349 13.3448 58.2299 13.2962V12.9962C58.0183 13.1824 57.7742 13.3282 57.5099 13.4262C57.2402 13.536 56.9511 13.5904 56.6599 13.5862ZM56.8699 12.9062C57.0821 12.9041 57.2922 12.8634 57.4899 12.7862C57.7149 12.7102 57.9249 12.5962 58.1099 12.4462V11.5262C57.7818 11.452 57.4463 11.4151 57.1099 11.4162C56.4429 11.4162 56.1099 11.6762 56.1099 12.1962C56.1009 12.391 56.1692 12.5814 56.2999 12.7262C56.3781 12.7926 56.4688 12.8428 56.5667 12.8737C56.6646 12.9046 56.7677 12.9157 56.8699 12.9062ZM60.6299 8.09616C60.5566 8.10379 60.4826 8.09515 60.4131 8.07086C60.3436 8.04657 60.2803 8.00722 60.2278 7.95563C60.1752 7.90404 60.1347 7.84149 60.1092 7.77243C60.0836 7.70337 60.0736 7.62952 60.0799 7.55616C60.0734 7.40979 60.1235 7.26654 60.2199 7.15616C60.2747 7.10497 60.3392 7.06532 60.4097 7.03956C60.4801 7.01379 60.555 7.00243 60.6299 7.00616C60.7049 7.00124 60.7801 7.01205 60.8507 7.03788C60.9213 7.06371 60.9857 7.10399 61.0399 7.15616C61.0909 7.20905 61.1305 7.27184 61.1563 7.34063C61.1821 7.40942 61.1935 7.48277 61.1899 7.55616C61.1745 7.69309 61.1063 7.81863 60.9999 7.90616C60.9538 7.96071 60.8974 8.0056 60.8339 8.03821C60.7704 8.07082 60.7011 8.09052 60.6299 8.09616ZM60.3599 13.4662C60.3355 13.4695 60.3106 13.4671 60.2873 13.4592C60.2639 13.4513 60.2427 13.4382 60.2253 13.4207C60.2079 13.4033 60.1947 13.3821 60.1868 13.3588C60.179 13.3354 60.1766 13.3106 60.1799 13.2862V9.08616C60.1766 9.06174 60.179 9.03689 60.1868 9.01355C60.1947 8.99021 60.2079 8.969 60.2253 8.95158C60.2427 8.93416 60.2639 8.92099 60.2873 8.91311C60.3106 8.90524 60.3355 8.90285 60.3599 8.90616H60.8999C61.0099 8.90616 61.0699 8.96616 61.0699 9.08616V13.2862C61.0699 13.4062 61.0099 13.4662 60.8999 13.4662H60.3599ZM63.2899 13.5062C63.1563 13.5123 63.0229 13.4916 62.8975 13.4452C62.7721 13.3988 62.6573 13.3277 62.5599 13.2362C62.3786 13.0145 62.2892 12.7318 62.3099 12.4462V6.98616C62.3066 6.96174 62.309 6.93689 62.3168 6.91355C62.3247 6.89021 62.3379 6.869 62.3553 6.85158C62.3727 6.83415 62.3939 6.82099 62.4173 6.81311C62.4406 6.80524 62.4655 6.80285 62.4899 6.80616H62.9999C63.0243 6.80285 63.0491 6.80524 63.0725 6.81311C63.0958 6.82099 63.117 6.83415 63.1345 6.85158C63.1519 6.869 63.165 6.89021 63.1729 6.91355C63.1808 6.93689 63.1832 6.96174 63.1799 6.98616V12.3962C63.1733 12.5022 63.2014 12.6075 63.2599 12.6962C63.341 12.7631 63.4451 12.7954 63.5499 12.7862H63.7599C63.8015 12.7689 63.8483 12.7689 63.8899 12.7862C63.9013 12.8287 63.9013 12.8736 63.8899 12.9162V13.2062C63.9027 13.2519 63.9027 13.3004 63.8899 13.3462C63.8525 13.3865 63.8036 13.4144 63.7499 13.4262C63.5999 13.4672 63.4459 13.4942 63.2899 13.5062ZM65.8499 13.5862C65.4817 13.5943 65.1241 13.462 64.8499 13.2162C64.5977 12.9385 64.4656 12.5723 64.4825 12.1976C64.4993 11.8229 64.6638 11.47 64.9399 11.2162C65.2963 10.9322 65.7449 10.7898 66.1999 10.8162C66.5819 10.8262 66.9599 10.8802 67.3299 10.9762V10.3762C67.3436 10.2537 67.331 10.1297 67.2931 10.0125C67.2552 9.89522 67.1927 9.78739 67.1099 9.69616C66.891 9.54381 66.6256 9.47304 66.3599 9.49616C65.9469 9.49616 65.5359 9.55616 65.1399 9.67616L64.8799 9.73616C64.8099 9.73616 64.7799 9.68616 64.7799 9.57616V9.31616C64.7655 9.2604 64.7655 9.20191 64.7799 9.14616C64.8184 9.09823 64.8708 9.06332 64.9299 9.04616C65.1549 8.95216 65.3899 8.88616 65.6299 8.84616C65.9099 8.79616 66.1949 8.76816 66.4799 8.76616C66.9296 8.72933 67.3775 8.85728 67.7399 9.12616C67.8844 9.2642 67.9963 9.43283 68.0672 9.61971C68.1382 9.80658 68.1664 10.007 68.1499 10.2062V13.2862C68.1532 13.3106 68.1508 13.3354 68.1429 13.3588C68.135 13.3821 68.1219 13.4033 68.1045 13.4207C68.087 13.4382 68.0658 13.4513 68.0425 13.4592C68.0191 13.4671 67.9943 13.4695 67.9699 13.4662H67.5799C67.5311 13.469 67.4831 13.4529 67.4458 13.4212C67.4086 13.3896 67.3849 13.3448 67.3799 13.2962V12.9962C67.1669 13.1802 66.9229 13.3262 66.6599 13.4262C66.4026 13.5308 66.1276 13.5851 65.8499 13.5862ZM66.0699 12.9062C66.2819 12.9032 66.4919 12.8622 66.6899 12.7862C66.9139 12.7082 67.1239 12.5932 67.3099 12.4462V11.5262C66.9817 11.452 66.6463 11.4151 66.3099 11.4162C65.6429 11.4162 65.3099 11.6762 65.3099 12.1962C65.3031 12.2928 65.3165 12.3899 65.3492 12.4811C65.382 12.5723 65.4332 12.6558 65.4999 12.7262C65.5781 12.7926 65.6688 12.8428 65.7667 12.8737C65.8646 12.9046 65.9677 12.9157 66.0699 12.9062ZM71.6299 13.5662C71.0892 13.5706 70.5684 13.3623 70.1799 12.9862L70.1199 13.2862C70.1187 13.312 70.1122 13.3374 70.1008 13.3607C70.0894 13.3839 70.0734 13.4046 70.0537 13.4215C70.0341 13.4384 70.0112 13.451 69.9864 13.4587C69.9617 13.4664 69.9356 13.4689 69.9099 13.4662H69.5299C69.5055 13.4695 69.4806 13.4671 69.4573 13.4592C69.4339 13.4513 69.4127 13.4382 69.3953 13.4207C69.3779 13.4033 69.3647 13.3821 69.3568 13.3588C69.349 13.3354 69.3466 13.3106 69.3499 13.2862V6.98616C69.3466 6.96174 69.349 6.93689 69.3568 6.91355C69.3647 6.89021 69.3779 6.869 69.3953 6.85158C69.4127 6.83415 69.4339 6.82099 69.4573 6.81311C69.4806 6.80524 69.5055 6.80285 69.5299 6.80616H70.0599C70.0843 6.80285 70.1091 6.80524 70.1325 6.81311C70.1558 6.82099 70.177 6.83415 70.1945 6.85158C70.2119 6.869 70.225 6.89021 70.2329 6.91355C70.2408 6.93689 70.2432 6.96174 70.2399 6.98616V9.33616C70.6375 8.97564 71.1532 8.77292 71.6899 8.76616C71.9534 8.75395 72.2161 8.80474 72.4561 8.9143C72.696 9.02386 72.9065 9.18904 73.0699 9.39616C73.4349 9.89616 73.6149 10.5082 73.5799 11.1262C73.6041 11.7696 73.3985 12.4006 72.9999 12.9062C72.839 13.1156 72.6312 13.2843 72.3933 13.399C72.1554 13.5136 71.8939 13.5708 71.6299 13.5662ZM71.4199 12.8462C72.2499 12.8462 72.6699 12.2862 72.6699 11.1662C72.6998 10.7255 72.5952 10.2861 72.3699 9.90616C72.2593 9.76806 72.117 9.65868 71.9551 9.58731C71.7932 9.51593 71.6164 9.48466 71.4399 9.49616C71.006 9.49904 70.5848 9.64294 70.2399 9.90616V12.4062C70.5718 12.6827 70.988 12.8379 71.4199 12.8462ZM75.5199 13.5062C75.3863 13.5122 75.2529 13.4915 75.1275 13.4451C75.0021 13.3987 74.8873 13.3277 74.7899 13.2362C74.6086 13.0145 74.5192 12.7318 74.5399 12.4462V6.98616C74.5351 6.94941 74.5431 6.91213 74.5626 6.88062C74.5821 6.8491 74.6119 6.82527 74.6469 6.81316C74.6703 6.8052 74.6953 6.80281 74.7199 6.80616H75.2499C75.2743 6.80285 75.2991 6.80524 75.3225 6.81311C75.3458 6.82099 75.367 6.83415 75.3845 6.85158C75.4019 6.869 75.415 6.89021 75.4229 6.91355C75.4308 6.93689 75.4332 6.96174 75.4299 6.98616V12.3962C75.4211 12.5039 75.4532 12.611 75.5199 12.6962C75.5575 12.7301 75.602 12.7556 75.6502 12.7711C75.6985 12.7867 75.7495 12.7918 75.7999 12.7862H76.1299C76.1413 12.8287 76.1413 12.8736 76.1299 12.9162V13.2062C76.1427 13.2519 76.1427 13.3004 76.1299 13.3462C76.0924 13.3865 76.0436 13.4144 75.9899 13.4262C75.8362 13.4683 75.6788 13.4951 75.5199 13.5062ZM78.9999 13.5962C78.6927 13.6189 78.3841 13.5763 78.0945 13.4712C77.805 13.366 77.5409 13.2007 77.3199 12.9862C76.9059 12.4776 76.702 11.8301 76.7499 11.1762C76.7117 10.5326 76.915 9.89786 77.3199 9.39616C77.5218 9.18012 77.7692 9.01157 78.0441 8.90263C78.3191 8.79369 78.6148 8.74708 78.9099 8.76616C79.1496 8.75084 79.3899 8.7856 79.6154 8.86824C79.841 8.95089 80.0468 9.07959 80.2199 9.24616C80.5489 9.62416 80.7139 10.1162 80.6799 10.6162C80.6939 10.8092 80.6939 11.0032 80.6799 11.1962C80.6922 11.242 80.6922 11.2903 80.6799 11.3362C80.6347 11.353 80.585 11.353 80.5399 11.3362H77.5999C77.5849 11.5496 77.6125 11.7638 77.6812 11.9664C77.7499 12.169 77.8582 12.3559 77.9999 12.5162C78.1534 12.6511 78.3327 12.7535 78.5269 12.8171C78.7212 12.8807 78.9263 12.9042 79.1299 12.8862C79.3029 12.8962 79.4769 12.8962 79.6499 12.8862C79.8599 12.8462 80.0669 12.7922 80.2699 12.7262H80.4599C80.5399 12.7262 80.5799 12.7762 80.5799 12.8862V13.1362C80.5997 13.1911 80.5997 13.2512 80.5799 13.3062C80.5405 13.3532 80.4884 13.3879 80.4299 13.4062C80.2243 13.4931 80.0096 13.5568 79.7899 13.5962C79.5273 13.6236 79.2625 13.6236 78.9999 13.5962ZM79.8599 10.7862C79.8664 10.7063 79.8664 10.626 79.8599 10.5462C79.8791 10.2468 79.7864 9.95104 79.5999 9.71616C79.5001 9.62213 79.382 9.54965 79.2529 9.5032C79.1239 9.45675 78.9867 9.43733 78.8499 9.44616C78.6882 9.43609 78.5263 9.46029 78.3746 9.51716C78.223 9.57402 78.0851 9.66228 77.9699 9.77616C77.7394 10.0587 77.6124 10.4115 77.6099 10.7762L79.8599 10.7862ZM84.9299 13.5862C84.5617 13.5943 84.2041 13.462 83.9299 13.2162C83.6777 12.9385 83.5456 12.5723 83.5625 12.1976C83.5793 11.8229 83.7438 11.47 84.0199 11.2162C84.3763 10.9322 84.825 10.7898 85.2799 10.8162C85.6619 10.8262 86.0399 10.8802 86.4099 10.9762V10.3762C86.4235 10.2537 86.4109 10.1298 86.3729 10.0125C86.335 9.8953 86.2726 9.78746 86.1899 9.69616C85.971 9.54381 85.7056 9.47304 85.4399 9.49616C85.0269 9.49616 84.6159 9.55616 84.2199 9.67616L83.9599 9.73616C83.8899 9.73616 83.8499 9.68616 83.8499 9.57616V9.31616C83.8346 9.26053 83.8346 9.20179 83.8499 9.14616C83.8884 9.09823 83.9408 9.06332 83.9999 9.04616C84.2249 8.95216 84.4599 8.88616 84.6999 8.84616C84.9799 8.79616 85.2649 8.76816 85.5499 8.76616C85.9996 8.72933 86.4475 8.85728 86.8099 9.12616C86.9544 9.2642 87.0663 9.43283 87.1372 9.61971C87.2082 9.80658 87.2364 10.007 87.2199 10.2062V13.2862C87.2231 13.3104 87.2207 13.3351 87.2129 13.3584C87.2051 13.3816 87.1921 13.4027 87.1749 13.4202C87.1575 13.4378 87.1363 13.4512 87.1128 13.4591C87.0894 13.4671 87.0644 13.4695 87.0399 13.4662H86.6499C86.6011 13.469 86.5531 13.4529 86.5158 13.4212C86.4786 13.3896 86.4549 13.3448 86.4499 13.2962V12.9962C86.2369 13.1802 85.9929 13.3262 85.7299 13.4262C85.4757 13.5296 85.2043 13.5839 84.9299 13.5862ZM85.1499 12.9062C85.3619 12.9032 85.5719 12.8622 85.7699 12.7862C85.9939 12.7082 86.2039 12.5932 86.3899 12.4462V11.5262C86.0618 11.452 85.7263 11.4151 85.3899 11.4162C84.7229 11.4162 84.3899 11.6762 84.3899 12.1962C84.3831 12.2928 84.3965 12.3899 84.4292 12.4811C84.462 12.5723 84.5132 12.6558 84.5799 12.7262C84.6581 12.7926 84.7488 12.8428 84.8467 12.8737C84.9446 12.9046 85.0477 12.9157 85.1499 12.9062ZM89.9999 13.5262C89.826 13.5513 89.6486 13.5355 89.4818 13.4801C89.315 13.4246 89.1635 13.3311 89.0392 13.2068C88.915 13.0825 88.8214 12.931 88.766 12.7642C88.7105 12.5975 88.6947 12.4201 88.7199 12.2462V9.60616H88.0799C88.0555 9.60946 88.0306 9.60708 88.0073 9.5992C87.9839 9.59132 87.9627 9.57816 87.9453 9.56074C87.9279 9.54332 87.9147 9.52211 87.9068 9.49876C87.899 9.47542 87.8966 9.45057 87.8999 9.42616V9.19616C87.8827 9.15453 87.8827 9.10778 87.8999 9.06616C87.9423 9.02922 87.9943 9.00496 88.0499 8.99616L88.7399 8.90616L88.8599 7.79616C88.8573 7.75854 88.8673 7.72113 88.8883 7.68981C88.9093 7.65849 88.9401 7.63505 88.9759 7.62316C88.9997 7.61539 89.025 7.613 89.0499 7.61616H89.4199C89.4443 7.61285 89.4691 7.61524 89.4925 7.62311C89.5158 7.63099 89.537 7.64415 89.5545 7.66158C89.5719 7.679 89.585 7.70021 89.5929 7.72355C89.6008 7.74689 89.6032 7.77174 89.5999 7.79616V8.90616H90.7699C90.7947 8.90316 90.8199 8.90567 90.8436 8.91352C90.8673 8.92136 90.889 8.93433 90.9072 8.95152C90.9253 8.96871 90.9394 8.98968 90.9486 9.01295C90.9577 9.03623 90.9615 9.06122 90.9599 9.08616V9.42616C90.9625 9.46377 90.9525 9.50118 90.9315 9.5325C90.9105 9.56382 90.8797 9.58727 90.8439 9.59916C90.82 9.60692 90.7948 9.60931 90.7699 9.60616H89.5999V12.2062C89.5914 12.2906 89.6003 12.3759 89.6261 12.4567C89.6519 12.5376 89.694 12.6123 89.7499 12.6762C89.899 12.7789 90.0798 12.8249 90.2599 12.8062C90.3999 12.8192 90.5399 12.8192 90.6799 12.8062H90.9599C90.9809 12.8359 90.9947 12.8701 90.9999 12.9062V13.1462C91.0129 13.2055 91.0129 13.2669 90.9999 13.3262C90.9613 13.372 90.9085 13.4036 90.8499 13.4162C90.5739 13.4962 90.2869 13.5322 89.9999 13.5262Z" fill="white"/>
</g>
</svg>
