<svg width="135" height="41" viewBox="0 0 135 41" fill="none" xmlns="http://www.w3.org/2000/svg">
<mask id="mask0_1_651" style="mask-type:luminance" maskUnits="userSpaceOnUse" x="0" y="0" width="135" height="41">
<path d="M0 0.90625H135V40.9062H0V0.90625Z" fill="white"/>
</mask>
<g mask="url(#mask0_1_651)">
<path d="M130.197 40.9062H4.729C3.47499 40.9033 2.27324 40.4036 1.38689 39.5165C0.500547 38.6294 0.00184854 37.4273 0 36.1732L0 5.63225C0.00185325 4.37889 0.500776 3.17743 1.38732 2.29145C2.27386 1.40547 3.47564 0.907308 4.729 0.90625L130.197 0.90625C132.803 0.90625 135 3.02625 135 5.63225V36.1732C135 38.7782 132.803 40.9062 130.197 40.9062Z" fill="#A6A6A6"/>
<path d="M134.032 36.1741C134.033 36.9324 133.808 37.6737 133.387 38.304C132.965 38.9343 132.366 39.4251 131.665 39.7141C131.2 39.9063 130.701 40.0048 130.198 40.0041H4.72914C3.7122 40.0052 2.73649 39.6023 2.01656 38.8841C1.29664 38.1658 0.891462 37.1911 0.890137 36.1741V5.63114C0.891461 4.61375 1.29648 3.63847 2.01626 2.91944C2.73604 2.20041 3.71174 1.79641 4.72914 1.79614H130.197C130.956 1.79566 131.697 2.02035 132.328 2.44174C132.958 2.86313 133.449 3.46224 133.739 4.16314C133.932 4.62914 134.031 5.12714 134.031 5.63114L134.032 36.1741Z" fill="black"/>
<path d="M30.1281 20.6903C30.0991 17.4673 32.7671 15.8993 32.8891 15.8263C31.3781 13.6233 29.0361 13.3223 28.2131 13.2983C26.2461 13.0913 24.3381 14.4753 23.3361 14.4753C22.3141 14.4753 20.7711 13.3183 19.1081 13.3523C16.9681 13.3853 14.9661 14.6243 13.8681 16.5483C11.6021 20.4713 13.2921 26.2363 15.4631 29.4073C16.5491 30.9603 17.8181 32.6943 19.4791 32.6333C21.1041 32.5663 21.7111 31.5973 23.6721 31.5973C25.6151 31.5973 26.1851 32.6333 27.8791 32.5943C29.6231 32.5663 30.7211 31.0343 31.7691 29.4673C33.0241 27.6873 33.5281 25.9343 33.5481 25.8443C33.5071 25.8303 30.1611 24.5533 30.1281 20.6903ZM26.9281 11.2123C27.8021 10.1193 28.4001 8.63229 28.2341 7.12329C26.9691 7.17929 25.3871 7.99829 24.4761 9.06729C23.6701 10.0093 22.9501 11.5533 23.1361 13.0053C24.5571 13.1113 26.0161 12.2883 26.9281 11.2123ZM53.6451 32.4103H51.3741L50.1301 28.5013H45.8061L44.6211 32.4103H42.4101L46.6941 19.1023H49.3401L53.6451 32.4103ZM49.7551 26.8613L48.6301 23.3863C48.5111 23.0313 48.2881 22.1953 47.9591 20.8793H47.9191C47.7191 21.7173 47.5091 22.5533 47.2871 23.3863L46.1821 26.8613H49.7551ZM64.6621 27.4943C64.6621 29.1263 64.2211 30.4163 63.3391 31.3633C62.5491 32.2063 61.5681 32.6273 60.3971 32.6273C59.1331 32.6273 58.2251 32.1733 57.6721 31.2653H57.6321V36.3203H55.5001V25.9733C55.5001 24.9473 55.4731 23.8943 55.4211 22.8143H57.2961L57.4151 24.3353H57.4551C58.1661 23.1893 59.2451 22.6173 60.6931 22.6173C61.8251 22.6173 62.7701 23.0643 63.5261 23.9593C64.2841 24.8553 64.6621 26.0333 64.6621 27.4943ZM62.4901 27.5723C62.4901 26.6383 62.2801 25.8683 61.8581 25.2623C61.3971 24.6303 60.7781 24.3143 60.0021 24.3143C59.4761 24.3143 58.9981 24.4903 58.5711 24.8373C58.1431 25.1873 57.8631 25.6443 57.7321 26.2103C57.6661 26.4743 57.6331 26.6903 57.6331 26.8603V28.4603C57.6331 29.1583 57.8471 29.7473 58.2751 30.2283C58.7031 30.7093 59.2591 30.9493 59.9431 30.9493C60.7461 30.9493 61.3711 30.6393 61.8181 30.0213C62.2661 29.4023 62.4901 28.5863 62.4901 27.5723ZM75.6991 27.4943C75.6991 29.1263 75.2581 30.4163 74.3751 31.3633C73.5861 32.2063 72.6051 32.6273 71.4341 32.6273C70.1701 32.6273 69.2621 32.1733 68.7101 31.2653H68.6701V36.3203H66.5381V25.9733C66.5381 24.9473 66.5111 23.8943 66.4591 22.8143H68.3341L68.4531 24.3353H68.4931C69.2031 23.1893 70.2821 22.6173 71.7311 22.6173C72.8621 22.6173 73.8071 23.0643 74.5651 23.9593C75.3201 24.8553 75.6991 26.0333 75.6991 27.4943ZM73.5271 27.5723C73.5271 26.6383 73.3161 25.8683 72.8941 25.2623C72.4331 24.6303 71.8161 24.3143 71.0391 24.3143C70.515 24.3141 70.0077 24.4994 69.6071 24.8373C69.1791 25.1873 68.9001 25.6443 68.7691 26.2103C68.7041 26.4743 68.6701 26.6903 68.6701 26.8603V28.4603C68.6701 29.1583 68.8841 29.7473 69.3101 30.2283C69.7381 30.7083 70.2941 30.9493 70.9801 30.9493C71.7831 30.9493 72.4081 30.6393 72.8551 30.0213C73.3031 29.4023 73.5271 28.5863 73.5271 27.5723ZM88.0391 28.6783C88.0391 29.8103 87.6461 30.7313 86.8571 31.4423C85.9901 32.2193 84.7831 32.6073 83.2321 32.6073C81.8001 32.6073 80.6521 32.3313 79.7831 31.7783L80.2771 30.0013C81.2131 30.5673 82.2401 30.8513 83.3591 30.8513C84.1621 30.8513 84.7871 30.6693 85.2361 30.3073C85.6831 29.9453 85.9061 29.4593 85.9061 28.8533C85.9061 28.3133 85.7221 27.8583 85.3531 27.4893C84.9861 27.1203 84.3731 26.7773 83.5171 26.4603C81.1871 25.5913 80.0231 24.3183 80.0231 22.6443C80.0231 21.5503 80.4311 20.6533 81.2481 19.9553C82.0621 19.2563 83.1481 18.9073 84.5061 18.9073C85.7171 18.9073 86.7231 19.1183 87.5261 19.5393L86.9931 21.2773C86.2431 20.8693 85.3951 20.6653 84.4461 20.6653C83.6961 20.6653 83.1101 20.8503 82.6901 21.2183C82.5198 21.369 82.384 21.5546 82.292 21.7626C82.2 21.9705 82.154 22.1959 82.1571 22.4233C82.1571 22.9493 82.3601 23.3843 82.7681 23.7263C83.1231 24.0423 83.7681 24.3843 84.7041 24.7533C85.8491 25.2143 86.6901 25.7533 87.2311 26.3713C87.7701 26.9873 88.0391 27.7583 88.0391 28.6783ZM95.0881 24.4143H92.7381V29.0733C92.7381 30.2583 93.1521 30.8503 93.9821 30.8503C94.3631 30.8503 94.6791 30.8173 94.9291 30.7513L94.9881 32.3703C94.5681 32.5273 94.0151 32.6063 93.3301 32.6063C92.4881 32.6063 91.8301 32.3493 91.3551 31.8363C90.8821 31.3223 90.6441 30.4603 90.6441 29.2493V24.4123H89.2441V22.8123H90.6441V21.0553L92.7381 20.4233V22.8123H95.0881V24.4143ZM105.691 27.5333C105.691 29.0083 105.269 30.2193 104.427 31.1663C103.544 32.1413 102.372 32.6273 100.911 32.6273C99.5031 32.6273 98.3821 32.1603 97.5461 31.2263C96.7101 30.2923 96.2921 29.1133 96.2921 27.6923C96.2921 26.2053 96.7221 24.9873 97.5851 24.0403C98.4461 23.0923 99.6081 22.6183 101.069 22.6183C102.477 22.6183 103.61 23.0853 104.465 24.0203C105.283 24.9273 105.691 26.0983 105.691 27.5333ZM103.479 27.6023C103.479 26.7173 103.29 25.9583 102.907 25.3253C102.46 24.5593 101.821 24.1773 100.993 24.1773C100.136 24.1773 99.4851 24.5603 99.0381 25.3253C98.6551 25.9593 98.4661 26.7303 98.4661 27.6423C98.4661 28.5273 98.6551 29.2863 99.0381 29.9183C99.4991 30.6843 100.143 31.0663 100.974 31.0663C101.788 31.0663 102.427 30.6763 102.888 29.8983C103.281 29.2533 103.479 28.4863 103.479 27.6023ZM112.621 24.6893C112.399 24.6492 112.174 24.6295 111.949 24.6303C111.199 24.6303 110.619 24.9133 110.211 25.4803C109.856 25.9803 109.678 26.6123 109.678 27.3753V32.4103H107.547L107.567 25.8363C107.567 24.7303 107.54 23.7233 107.487 22.8153H109.344L109.422 24.6513H109.481C109.706 24.0203 110.061 23.5123 110.547 23.1313C110.992 22.7984 111.532 22.6181 112.088 22.6173C112.285 22.6173 112.463 22.6313 112.621 22.6563V24.6893ZM122.156 27.1583C122.161 27.4823 122.135 27.8063 122.078 28.1253H115.682C115.707 29.0733 116.016 29.7983 116.61 30.2983C117.149 30.7453 117.846 30.9693 118.702 30.9693C119.649 30.9693 120.513 30.8183 121.29 30.5153L121.624 31.9953C120.716 32.3913 119.644 32.5883 118.407 32.5883C116.919 32.5883 115.751 32.1503 114.901 31.2753C114.053 30.4003 113.628 29.2253 113.628 27.7513C113.628 26.3043 114.023 25.0993 114.814 24.1383C115.642 23.1123 116.761 22.5993 118.169 22.5993C119.552 22.5993 120.599 23.1123 121.31 24.1383C121.873 24.9533 122.156 25.9613 122.156 27.1583ZM120.123 26.6053C120.137 25.9733 119.998 25.4273 119.709 24.9663C119.34 24.3733 118.773 24.0773 118.01 24.0773C117.313 24.0773 116.746 24.3663 116.313 24.9463C115.958 25.4073 115.747 25.9603 115.682 26.6043L120.123 26.6053ZM49.0501 10.9153C49.0501 12.0923 48.6971 12.9783 47.9921 13.5733C47.3391 14.1223 46.4111 14.3973 45.2091 14.3973C44.6131 14.3973 44.1031 14.3713 43.6761 14.3193V7.88829C44.2331 7.79829 44.8331 7.75229 45.4811 7.75229C46.6261 7.75229 47.4891 8.00129 48.0711 8.49929C48.7231 9.06229 49.0501 9.86729 49.0501 10.9153ZM47.9451 10.9443C47.9451 10.1813 47.7431 9.59629 47.3391 9.18829C46.9351 8.78129 46.3451 8.57729 45.5681 8.57729C45.2381 8.57729 44.9571 8.59929 44.7241 8.64529V13.5343C44.8531 13.5543 45.0891 13.5633 45.4321 13.5633C46.2341 13.5633 46.8531 13.3403 47.2891 12.8943C47.7251 12.4483 47.9451 11.7983 47.9451 10.9443ZM54.9091 11.9433C54.9091 12.6683 54.7021 13.2623 54.2881 13.7283C53.8541 14.2073 53.2791 14.4463 52.5611 14.4463C51.8691 14.4463 51.3181 14.2173 50.9071 13.7573C50.4971 13.2983 50.2921 12.7193 50.2921 12.0213C50.2921 11.2913 50.5031 10.6923 50.9271 10.2273C51.3511 9.76229 51.9211 9.52929 52.6391 9.52929C53.3311 9.52929 53.8871 9.75829 54.3081 10.2173C54.7081 10.6633 54.9091 11.2393 54.9091 11.9433ZM53.8221 11.9773C53.8221 11.5423 53.7281 11.1693 53.5411 10.8583C53.3211 10.4823 53.0081 10.2943 52.6011 10.2943C52.1801 10.2943 51.8601 10.4823 51.6401 10.8583C51.4521 11.1693 51.3591 11.5483 51.3591 11.9963C51.3591 12.4313 51.4531 12.8043 51.6401 13.1153C51.8671 13.4913 52.1831 13.6793 52.5911 13.6793C52.9911 13.6793 53.3051 13.4883 53.5311 13.1053C53.7251 12.7883 53.8221 12.4123 53.8221 11.9773ZM62.7651 9.62529L61.2901 14.3393H60.3301L59.7191 12.2923C59.5671 11.7923 59.4401 11.2823 59.3401 10.7693H59.3211C59.2307 11.2852 59.1041 11.7942 58.9421 12.2923L58.2931 14.3393H57.3221L55.9351 9.62529H57.0121L57.5451 11.8663C57.6741 12.3963 57.7801 12.9013 57.8651 13.3793H57.8841C57.9621 12.9853 58.0911 12.4833 58.2731 11.8763L58.9421 9.62629H59.7961L60.4371 11.8283C60.5921 12.3653 60.7181 12.8823 60.8151 13.3803H60.8441C60.9151 12.8953 61.0221 12.3783 61.1641 11.8283L61.7361 9.62629H62.7651V9.62529ZM68.1981 14.3393H67.1501V11.6393C67.1501 10.8073 66.8341 10.3913 66.2001 10.3913C66.0561 10.3871 65.9131 10.4158 65.7819 10.4752C65.6507 10.5347 65.5348 10.6233 65.4431 10.7343C65.2511 10.9593 65.1477 11.2465 65.1521 11.5423V14.3383H64.1041V10.9723C64.1041 10.5583 64.0911 10.1093 64.0661 9.62329H64.9871L65.0361 10.3603H65.0651C65.1871 10.1313 65.3691 9.94229 65.6081 9.79129C65.8921 9.61529 66.2101 9.52629 66.5581 9.52629C66.9981 9.52629 67.3641 9.66829 67.6551 9.95329C68.0171 10.3023 68.1981 10.8233 68.1981 11.5153V14.3393ZM71.0881 14.3393H70.0411V7.46229H71.0881V14.3393ZM77.2581 11.9433C77.2581 12.6683 77.0511 13.2623 76.6371 13.7283C76.2031 14.2073 75.6271 14.4463 74.9101 14.4463C74.2171 14.4463 73.6661 14.2173 73.2561 13.7573C72.8461 13.2983 72.6411 12.7193 72.6411 12.0213C72.6411 11.2913 72.8521 10.6923 73.2761 10.2273C73.7001 9.76229 74.2701 9.52929 74.9871 9.52929C75.6801 9.52929 76.2351 9.75829 76.6571 10.2173C77.0571 10.6633 77.2581 11.2393 77.2581 11.9433ZM76.1701 11.9773C76.1701 11.5423 76.0761 11.1693 75.8891 10.8583C75.6701 10.4823 75.3561 10.2943 74.9501 10.2943C74.5281 10.2943 74.2081 10.4823 73.9891 10.8583C73.8011 11.1693 73.7081 11.5483 73.7081 11.9963C73.7081 12.4313 73.8021 12.8043 73.9891 13.1153C74.2161 13.4913 74.5321 13.6793 74.9401 13.6793C75.3401 13.6793 75.6531 13.4883 75.8791 13.1053C76.0741 12.7883 76.1701 12.4123 76.1701 11.9773ZM82.3301 14.3393H81.3891L81.3111 13.7963H81.2821C80.9601 14.2293 80.5011 14.4463 79.9051 14.4463C79.4601 14.4463 79.1001 14.3033 78.8291 14.0193C78.7074 13.8915 78.6121 13.7408 78.5488 13.5761C78.4855 13.4114 78.4553 13.2357 78.4601 13.0593C78.4601 12.4833 78.7001 12.0443 79.1831 11.7403C79.6651 11.4363 80.3431 11.2873 81.2161 11.2943V11.2063C81.2161 10.5853 80.8901 10.2753 80.2371 10.2753C79.7721 10.2753 79.3621 10.3923 79.0081 10.6243L78.7951 9.93629C79.2331 9.66529 79.7741 9.52929 80.4121 9.52929C81.6441 9.52929 82.2621 10.1793 82.2621 11.4793V13.2153C82.2621 13.6863 82.2851 14.0613 82.3301 14.3393ZM81.2421 12.7193V11.9923C80.0861 11.9723 79.5081 12.2893 79.5081 12.9423C79.5081 13.1883 79.5741 13.3723 79.7091 13.4953C79.8491 13.6203 80.0331 13.6853 80.2211 13.6793C80.4511 13.6793 80.6661 13.6063 80.8621 13.4613C80.981 13.3778 81.0778 13.2667 81.144 13.1374C81.2102 13.0081 81.2439 12.8646 81.2421 12.7193ZM88.2851 14.3393H87.3551L87.3061 13.5823H87.2771C86.9801 14.1583 86.4741 14.4463 85.7631 14.4463C85.1951 14.4463 84.7221 14.2233 84.3471 13.7773C83.9721 13.3313 83.7851 12.7523 83.7851 12.0413C83.7851 11.2783 83.9881 10.6603 84.3961 10.1883C84.7911 9.74829 85.2751 9.52829 85.8511 9.52829C86.4841 9.52829 86.9271 9.74129 87.1791 10.1683H87.1991V7.46229H88.2481V13.0693C88.2481 13.5283 88.2601 13.9513 88.2851 14.3393ZM87.1991 12.3513V11.5653C87.209 11.384 87.1774 11.2028 87.1067 11.0356C87.036 10.8684 86.928 10.7195 86.7911 10.6003C86.5978 10.43 86.3477 10.3383 86.0901 10.3433C85.6991 10.3433 85.3931 10.4983 85.1681 10.8093C84.9451 11.1203 84.8321 11.5173 84.8321 12.0023C84.8321 12.4683 84.9391 12.8463 85.1541 13.1373C85.3811 13.4473 85.6871 13.6023 86.0701 13.6023C86.4141 13.6023 86.6891 13.4733 86.8981 13.2143C87.1001 12.9753 87.1991 12.6873 87.1991 12.3513ZM97.2481 11.9433C97.2481 12.6683 97.0411 13.2623 96.6271 13.7283C96.1931 14.2073 95.6191 14.4463 94.9001 14.4463C94.2091 14.4463 93.6581 14.2173 93.2461 13.7573C92.8361 13.2983 92.6311 12.7193 92.6311 12.0213C92.6311 11.2913 92.8421 10.6923 93.2661 10.2273C93.6901 9.76229 94.2601 9.52929 94.9791 9.52929C95.6701 9.52929 96.2271 9.75829 96.6471 10.2173C97.0471 10.6633 97.2481 11.2393 97.2481 11.9433ZM96.1621 11.9773C96.1621 11.5423 96.0681 11.1693 95.8811 10.8583C95.6601 10.4823 95.3481 10.2943 94.9401 10.2943C94.5201 10.2943 94.2001 10.4823 93.9791 10.8583C93.7911 11.1693 93.6981 11.5483 93.6981 11.9963C93.6981 12.4313 93.7921 12.8043 93.9791 13.1153C94.2061 13.4913 94.5221 13.6793 94.9301 13.6793C95.3301 13.6793 95.6451 13.4883 95.8711 13.1053C96.0641 12.7883 96.1621 12.4123 96.1621 11.9773ZM102.883 14.3393H101.836V11.6393C101.836 10.8073 101.52 10.3913 100.885 10.3913C100.741 10.3869 100.598 10.4156 100.467 10.475C100.336 10.5345 100.221 10.6232 100.129 10.7343C99.9367 10.9591 99.8332 11.2465 99.8381 11.5423V14.3383H98.7891V10.9723C98.7891 10.5583 98.7771 10.1093 98.7521 9.62329H99.6721L99.7211 10.3603H99.7501C99.8781 10.1263 100.066 9.93029 100.293 9.79129C100.578 9.61529 100.895 9.52629 101.244 9.52629C101.683 9.52629 102.049 9.66829 102.34 9.95329C102.703 10.3023 102.883 10.8233 102.883 11.5153V14.3393ZM109.936 10.4103H108.782V12.7003C108.782 13.2823 108.987 13.5733 109.393 13.5733C109.581 13.5733 109.737 13.5573 109.86 13.5243L109.887 14.3193C109.68 14.3973 109.408 14.4363 109.073 14.4363C108.659 14.4363 108.337 14.3103 108.104 14.0583C107.87 13.8063 107.754 13.3823 107.754 12.7873V10.4103H107.065V9.62529H107.754V8.76129L108.781 8.45129V9.62429H109.935L109.936 10.4103ZM115.484 14.3393H114.435V11.6593C114.435 10.8143 114.119 10.3913 113.486 10.3913C113 10.3913 112.668 10.6363 112.486 11.1263C112.452 11.2493 112.435 11.3763 112.437 11.5033V14.3383H111.39V7.46229H112.437V10.3033H112.457C112.787 9.78629 113.26 9.52829 113.873 9.52829C114.307 9.52829 114.666 9.67029 114.951 9.95529C115.306 10.3103 115.484 10.8383 115.484 11.5363V14.3393ZM121.207 11.7593C121.207 11.9473 121.193 12.1053 121.168 12.2343H118.025C118.039 12.7003 118.189 13.0553 118.48 13.3013C118.746 13.5213 119.089 13.6313 119.509 13.6313C119.974 13.6313 120.398 13.5573 120.78 13.4083L120.944 14.1363C120.497 14.3303 119.971 14.4273 119.362 14.4273C118.632 14.4273 118.057 14.2123 117.641 13.7823C117.223 13.3523 117.016 12.7753 117.016 12.0513C117.016 11.3403 117.209 10.7483 117.598 10.2763C118.004 9.77229 118.553 9.52029 119.246 9.52029C119.924 9.52029 120.439 9.77229 120.787 10.2763C121.068 10.6763 121.207 11.1713 121.207 11.7593ZM120.207 11.4883C120.222 11.2056 120.151 10.9251 120.004 10.6833C119.822 10.3923 119.545 10.2463 119.17 10.2463C119.007 10.2433 118.845 10.2808 118.7 10.3552C118.554 10.4297 118.429 10.539 118.336 10.6733C118.158 10.9104 118.05 11.1928 118.025 11.4883H120.207Z" fill="white"/>
</g>
</svg>
