<svg width="30" height="31" viewBox="0 0 30 31" fill="none" xmlns="http://www.w3.org/2000/svg">
<path fill-rule="evenodd" clip-rule="evenodd" d="M15 0.90625C6.75 0.90625 0 7.65625 0 15.9062C0 24.1562 6.75 30.9062 15 30.9062C23.25 30.9062 30 24.1562 30 15.9062C30 7.65625 23.25 0.90625 15 0.90625ZM18.75 11.1062H17.4C16.35 11.1062 16.125 11.6313 16.125 12.3813V14.0312H18.675L18.375 16.5813H16.2V23.1812H13.5V16.5813H11.25V14.0312H13.5V12.1562C13.5 9.98125 14.85 8.78125 16.8 8.78125C17.775 8.78125 18.525 8.85625 18.75 8.85625V11.1062Z" fill="black"/>
</svg>
