<svg width="135" height="41" viewBox="0 0 135 41" fill="none" xmlns="http://www.w3.org/2000/svg">
<path fill-rule="evenodd" clip-rule="evenodd" d="M129.998 40.9062H5.002C3.67679 40.9028 2.4068 40.375 1.46955 39.4381C0.532289 38.5012 0.00395932 37.2315 0 35.9062L0 5.90625C0 3.15025 2.245 0.90625 5.002 0.90625H129.998C131.324 0.908364 132.594 1.43576 133.532 2.37293C134.469 3.3101 134.997 4.58063 135 5.90625V35.9062C135 38.6522 132.752 40.9062 129.998 40.9062Z" fill="black"/>
<path fill-rule="evenodd" clip-rule="evenodd" d="M129.998 1.70625C132.31 1.70625 134.203 3.59425 134.203 5.90625V35.9062C134.203 38.2183 132.323 40.1063 129.998 40.1063H5.002C3.88828 40.1041 2.8207 39.6611 2.03271 38.8741C1.24472 38.087 0.800435 37.02 0.797 35.9062V5.90625C0.797 3.59425 2.677 1.70625 5.002 1.70625H129.998ZM129.998 0.90625H5.002C3.67679 0.909679 2.4068 1.4375 1.46955 2.37438C0.532289 3.31127 0.00395932 4.58104 0 5.90625L0 35.9062C0 38.6623 2.245 40.9062 5.002 40.9062H129.998C131.324 40.9041 132.594 40.3767 133.532 39.4396C134.469 38.5024 134.997 37.2319 135 35.9062V5.90625C135 3.16025 132.752 0.90625 129.998 0.90625Z" fill="#A6A6A6"/>
<path d="M71.118 14.1384C70.217 14.1384 69.457 13.8214 68.856 13.1984C68.5596 12.8952 68.3262 12.5363 68.1693 12.1423C68.0124 11.7484 67.9351 11.3273 67.942 10.9034C67.942 9.99336 68.25 9.22336 68.856 8.61236C69.454 7.98836 70.214 7.67236 71.116 7.67236C72.007 7.67236 72.767 7.98836 73.378 8.61236C73.984 9.24236 74.292 10.0134 74.292 10.9034C74.282 11.8164 73.974 12.5874 73.378 13.1954C72.78 13.8244 72.02 14.1384 71.118 14.1384ZM44.294 14.1384C43.8721 14.1445 43.4534 14.0655 43.0629 13.906C42.6723 13.7466 42.3179 13.51 42.021 13.2104C41.401 12.5974 41.085 11.8214 41.085 10.9064C41.085 9.99136 41.401 9.21636 42.021 8.60236C42.635 7.98636 43.4 7.67436 44.294 7.67436C44.731 7.67436 45.156 7.76136 45.563 7.93836C45.963 8.11036 46.288 8.34536 46.529 8.63236L46.589 8.70436L45.916 9.36736L45.846 9.28536C45.466 8.83136 44.956 8.60936 44.284 8.60936C43.683 8.60936 43.159 8.82436 42.727 9.24836C42.292 9.67436 42.071 10.2334 42.071 10.9084C42.071 11.5844 42.292 12.1434 42.727 12.5694C43.159 12.9934 43.683 13.2084 44.284 13.2084C44.924 13.2084 45.464 12.9934 45.884 12.5694C46.132 12.3194 46.286 11.9714 46.34 11.5294H44.182V10.5974H47.267L47.279 10.6814C47.301 10.8394 47.324 11.0014 47.324 11.1514C47.324 12.0114 47.066 12.7064 46.554 13.2214C45.973 13.8294 45.213 14.1384 44.294 14.1384ZM79.96 14.0064H79.009L76.095 9.32536L76.12 10.1684V14.0034H75.169V7.80636H76.254L76.284 7.85436L79.024 12.2634L78.999 11.4234V7.80636H79.959L79.96 14.0064ZM63.97 14.0064H63.007V8.73936H61.336V7.80636H65.64V8.73936H63.968V14.0064H63.97ZM60.551 14.0064H59.59V7.80636H60.551V14.0064ZM55.149 14.0064H54.189V8.73936H52.517V7.80636H56.821V8.73936H55.149V14.0064ZM51.909 13.9964H48.223V7.80636H51.908V8.73936H49.186V10.4394H51.643V11.3624H49.186V13.0634H51.908L51.909 13.9964ZM69.561 12.5564C69.991 12.9884 70.512 13.2064 71.118 13.2064C71.742 13.2064 72.251 12.9934 72.676 12.5564C73.098 12.1334 73.311 11.5764 73.311 10.9064C73.311 10.2364 73.098 9.67636 72.678 9.25536C72.4764 9.04686 72.2342 8.88181 71.9665 8.77037C71.6987 8.65893 71.411 8.60346 71.121 8.60736C70.498 8.60736 69.988 8.81936 69.566 9.25536C69.144 9.67936 68.93 10.2354 68.93 10.9054C68.93 11.5774 69.141 12.1354 69.561 12.5574V12.5564Z" fill="white"/>
<path fill-rule="evenodd" clip-rule="evenodd" d="M67.853 22.6622C65.506 22.6622 63.603 24.4502 63.603 26.9162C63.603 29.3602 65.518 31.1702 67.853 31.1702C70.2 31.1702 72.102 29.3702 72.102 26.9162C72.102 24.4502 70.2 22.6622 67.853 22.6622ZM67.853 29.4852C66.569 29.4852 65.463 28.4172 65.463 26.9062C65.463 25.3722 66.571 24.3282 67.853 24.3282C69.137 24.3282 70.242 25.3722 70.242 26.9062C70.244 28.4272 69.138 29.4852 67.853 29.4852ZM58.582 22.6622C56.235 22.6622 54.332 24.4502 54.332 26.9162C54.332 29.3602 56.247 31.1702 58.582 31.1702C60.928 31.1702 62.831 29.3702 62.831 26.9162C62.831 24.4502 60.927 22.6622 58.582 22.6622ZM58.582 29.4852C57.297 29.4852 56.192 28.4172 56.192 26.9062C56.192 25.3722 57.3 24.3282 58.582 24.3282C59.865 24.3282 60.971 25.3722 60.971 26.9062C60.971 28.4272 59.867 29.4852 58.582 29.4852ZM47.55 23.9612V25.7612H51.854C51.722 26.7712 51.389 27.5172 50.88 28.0282C50.25 28.6622 49.276 29.3502 47.56 29.3502C44.915 29.3502 42.846 27.2052 42.846 24.5502C42.846 21.8942 44.915 19.7492 47.56 19.7492C48.988 19.7492 50.028 20.3152 50.8 21.0392L52.072 19.7612C50.999 18.7292 49.572 17.9382 47.569 17.9382C43.941 17.9382 40.896 20.9062 40.896 24.5402C40.896 28.1832 43.939 31.1402 47.569 31.1402C49.529 31.1402 50.999 30.4972 52.162 29.2852C53.346 28.0952 53.722 26.4172 53.722 25.0632C53.722 24.6422 53.689 24.2632 53.622 23.9412H47.547C47.55 23.9382 47.55 23.9612 47.55 23.9612ZM92.673 25.3622C92.318 24.4072 91.245 22.6522 89.045 22.6522C86.865 22.6522 85.051 24.3752 85.051 26.9062C85.051 29.2962 86.844 31.1602 89.256 31.1602C91.193 31.1602 92.32 29.9702 92.785 29.2732L91.347 28.3052C90.87 29.0152 90.207 29.4822 89.266 29.4822C88.314 29.4822 87.649 29.0482 87.206 28.1922L92.872 25.8362C92.872 25.8392 92.673 25.3622 92.673 25.3622ZM86.896 26.7842C86.852 25.1412 88.168 24.3052 89.109 24.3052C89.852 24.3052 90.47 24.6722 90.681 25.2052L86.896 26.7842ZM82.294 30.9062H84.154V18.4072H82.294V30.9062ZM79.24 23.6062H79.173C78.753 23.1062 77.956 22.6522 76.937 22.6522C74.824 22.6522 72.877 24.5192 72.877 26.9192C72.877 29.3072 74.814 31.1532 76.937 31.1532C77.943 31.1532 78.753 30.6972 79.173 30.1852H79.24V30.7962C79.24 32.4202 78.375 33.2962 76.982 33.2962C75.842 33.2962 75.134 32.4722 74.846 31.7842L73.229 32.4622C73.694 33.5842 74.933 34.9732 76.979 34.9732C79.16 34.9732 81.008 33.6842 81.008 30.5402V22.9062H79.25V23.6062H79.24ZM77.104 29.4852C75.82 29.4852 74.747 28.4072 74.747 26.9182C74.747 25.4182 75.82 24.3302 77.104 24.3302C78.375 24.3302 79.361 25.4302 79.361 26.9182C79.374 28.4082 78.378 29.4852 77.104 29.4852ZM101.383 18.4062H96.935V30.9062H98.795V26.1722H101.385C103.444 26.1722 105.468 24.6732 105.468 22.2942C105.468 19.9152 103.452 18.4062 101.383 18.4062ZM101.437 24.4262H98.793V20.1372H101.437C102.831 20.1372 103.618 21.2922 103.618 22.2822C103.618 23.2622 102.821 24.4262 101.437 24.4262ZM112.924 22.6382C111.573 22.6382 110.18 23.2392 109.603 24.5482L111.252 25.2372C111.608 24.5482 112.258 24.3142 112.946 24.3142C113.91 24.3142 114.883 24.8932 114.906 25.9252V26.0572C114.573 25.8672 113.843 25.5782 112.969 25.5782C111.188 25.5782 109.382 26.5562 109.382 28.3882C109.382 30.0682 110.843 31.1442 112.469 31.1442C113.719 31.1442 114.406 30.5782 114.836 29.9222H114.903V30.8902H116.696V26.1022C116.696 23.8722 115.047 22.6382 112.924 22.6382ZM112.69 29.4842C112.082 29.4842 111.23 29.1842 111.23 28.4162C111.23 27.4492 112.293 27.0822 113.199 27.0822C114.019 27.0822 114.407 27.2592 114.893 27.5042C114.829 28.0456 114.57 28.5452 114.165 28.9096C113.759 29.274 113.235 29.4783 112.69 29.4842ZM123.238 22.9062L121.102 28.3282H121.035L118.822 22.9062H116.82L120.141 30.4852L118.249 34.6972H120.186L125.294 22.9062H123.238ZM106.494 30.9062H108.354V18.4072H106.494V30.9062Z" fill="white"/>
<path fill-rule="evenodd" clip-rule="evenodd" d="M10.391 8.44031C10.103 8.75131 9.93701 9.22831 9.93701 9.85131V31.9633C9.93701 32.5873 10.103 33.0633 10.401 33.3633L10.478 33.4303L22.816 21.0403V20.7643L10.468 8.37231L10.391 8.44031Z" fill="url(#paint0_linear_1_639)"/>
<path fill-rule="evenodd" clip-rule="evenodd" d="M26.9222 25.1832L22.8062 21.0512V20.7612L26.9222 16.6292L27.0112 16.6842L31.8792 19.4622C33.2722 20.2502 33.2722 21.5522 31.8792 22.3502L27.0112 25.1282L26.9212 25.1832H26.9222Z" fill="url(#paint1_linear_1_639)"/>
<path fill-rule="evenodd" clip-rule="evenodd" d="M27.0101 25.1283L22.8071 20.9062L10.3911 33.3722C10.8451 33.8622 11.6081 33.9163 12.4601 33.4403L27.0101 25.1283Z" fill="url(#paint2_linear_1_639)"/>
<path fill-rule="evenodd" clip-rule="evenodd" d="M27.0101 16.6843L12.4601 8.38431C11.6081 7.89631 10.8431 7.96431 10.3911 8.45231L22.8061 20.9063L27.0101 16.6843Z" fill="url(#paint3_linear_1_639)"/>
<path opacity="0.2" fill-rule="evenodd" clip-rule="evenodd" d="M26.9219 25.0383L12.4699 33.2833C11.6629 33.7493 10.9429 33.7163 10.4779 33.2933L10.4009 33.3703L10.4779 33.4373C10.9429 33.8593 11.6629 33.8933 12.4699 33.4273L27.0199 25.1273L26.9219 25.0383Z" fill="black"/>
<path opacity="0.12" fill-rule="evenodd" clip-rule="evenodd" d="M31.8792 22.2062L26.9092 25.0382L26.9992 25.1283L31.8662 22.3503C32.5642 21.9503 32.9062 21.4273 32.9062 20.9062C32.8652 21.3853 32.5102 21.8392 31.8792 22.2062Z" fill="black"/>
<path opacity="0.25" fill-rule="evenodd" clip-rule="evenodd" d="M12.46 8.52913L31.879 19.6071C32.509 19.9631 32.865 20.4301 32.919 20.9061C32.919 20.3851 32.577 19.8611 31.879 19.4621L12.459 8.38613C11.067 7.58613 9.93701 8.25413 9.93701 9.85213V9.99713C9.93701 8.39613 11.067 7.73913 12.46 8.52913Z" fill="white"/>
<defs>
<linearGradient id="paint0_linear_1_639" x1="21.71" y1="9.61331" x2="1.93501" y2="14.8603" gradientUnits="userSpaceOnUse">
<stop stop-color="#00A0FF"/>
<stop offset="0.007" stop-color="#00A1FF"/>
<stop offset="0.26" stop-color="#00BEFF"/>
<stop offset="0.512" stop-color="#00D2FF"/>
<stop offset="0.76" stop-color="#00DFFF"/>
<stop offset="1" stop-color="#00E3FF"/>
</linearGradient>
<linearGradient id="paint1_linear_1_639" x1="33.6952" y1="20.9062" x2="9.59815" y2="20.9062" gradientUnits="userSpaceOnUse">
<stop stop-color="#FFE000"/>
<stop offset="0.409" stop-color="#FFBD00"/>
<stop offset="0.775" stop-color="#FFA500"/>
<stop offset="1" stop-color="#FF9C00"/>
</linearGradient>
<linearGradient id="paint2_linear_1_639" x1="24.7241" y1="23.2032" x2="8.76211" y2="49.9602" gradientUnits="userSpaceOnUse">
<stop stop-color="#FF3A44"/>
<stop offset="1" stop-color="#C31162"/>
</linearGradient>
<linearGradient id="paint3_linear_1_639" x1="7.26511" y1="1.08531" x2="14.3861" y2="13.0353" gradientUnits="userSpaceOnUse">
<stop stop-color="#32A071"/>
<stop offset="0.069" stop-color="#2DA771"/>
<stop offset="0.476" stop-color="#15CF74"/>
<stop offset="0.801" stop-color="#06E775"/>
<stop offset="1" stop-color="#00F076"/>
</linearGradient>
</defs>
</svg>
