<svg width="120" height="36" viewBox="0 0 120 36" fill="none" xmlns="http://www.w3.org/2000/svg">
<path d="M20.8001 8.81906L23.3462 4.39983C23.7042 3.77938 23.8012 3.04227 23.6162 2.3503C23.4312 1.65834 22.9791 1.06807 22.3593 0.709064C22.0525 0.53181 21.7137 0.416806 21.3623 0.370634C21.011 0.324461 20.654 0.348025 20.3117 0.439979C19.9695 0.531932 19.6487 0.690469 19.3678 0.906518C19.0869 1.12257 18.8514 1.39189 18.6747 1.69906L16.1286 6.11676C10.7016 4.40368 4.62701 6.6206 1.66394 11.7606C0.76914 13.3097 0.219624 15.0339 0.0530024 16.8151C-0.113619 18.5963 0.106589 20.3924 0.698552 22.0806L5.40086 13.9221C5.92935 12.999 6.6357 12.1898 7.47904 11.5415C8.32238 10.8932 9.28594 10.4186 10.3139 10.1452C11.34 9.86693 12.4112 9.79522 13.4652 9.93427C14.5192 10.0733 15.5351 10.4204 16.4539 10.9552C20.3178 13.1898 21.6462 18.1568 19.4155 22.026C17.1847 25.8968 12.2262 27.2275 8.36317 24.9929L11.0601 20.3137C11.3668 20.4911 11.7056 20.6063 12.0569 20.6526C12.4082 20.699 12.7652 20.6755 13.1074 20.5837C13.4497 20.4919 13.7705 20.3335 14.0514 20.1175C14.3324 19.9016 14.568 19.6323 14.7447 19.3252C15.1021 18.7047 15.1988 17.9678 15.0137 17.276C14.8285 16.5843 14.3766 15.9942 13.757 15.6352C13.4502 15.4579 13.1115 15.3428 12.7602 15.2965C12.409 15.2502 12.052 15.2737 11.7098 15.3655C11.3675 15.4573 11.0468 15.6157 10.7658 15.8316C10.4849 16.0475 10.2492 16.3166 10.0724 16.6237L1.46932 31.5491C1.11166 32.1694 1.0147 32.9064 1.19972 33.5981C1.38474 34.2899 1.83664 34.8801 2.45624 35.2391C2.763 35.4165 3.10177 35.5318 3.45314 35.5781C3.8045 35.6244 4.16156 35.601 4.50384 35.5091C4.84613 35.4172 5.16692 35.2587 5.44783 35.0426C5.72874 34.8265 5.96424 34.5571 6.14086 34.2498L8.68778 29.8321C14.1139 31.5452 20.1893 29.3283 23.1524 24.1875C26.1155 19.0475 24.9947 12.6691 20.7993 8.81829M36.3286 17.8691C37.5339 17.8691 38.3016 17.3268 38.3016 16.0144C38.3016 14.6852 37.4986 14.1791 36.3286 14.1791H34.6686V17.8683L36.3286 17.8691ZM32.2239 12.026H36.3978C38.8255 12.026 40.817 13.2329 40.817 16.0144C40.817 18.796 38.8086 20.0221 36.3978 20.0221H34.6693V23.9229H32.2232L32.2239 12.026ZM44.4086 12.026H52.2678V14.1791H46.8532V16.9068H51.6224V19.006H46.8532V21.7714H52.5132V23.9229H44.4078L44.4086 12.026ZM56.6278 12.026H59.0732V21.7714H64.4532V23.9229H56.6278V12.026ZM76.9639 17.9737C76.9639 15.7529 75.497 14.0552 73.3316 14.0552C71.1647 14.0552 69.6986 15.7529 69.6986 17.9737C69.6986 20.1968 71.1647 21.8937 73.3316 21.8937C75.497 21.8937 76.9639 20.196 76.9639 17.9737ZM67.1832 17.9737C67.1832 14.4583 69.9078 11.8683 73.3316 11.8683C76.7547 11.8683 79.4778 14.4583 79.4778 17.9737C79.4778 21.4906 76.7547 24.0814 73.3316 24.0814C69.9086 24.0814 67.1832 21.4906 67.1832 17.9737ZM85.5016 14.1791H82.1139V12.0252H91.3355V14.1791H87.9478V23.9229H85.5016V14.1791ZM103.735 17.9737C103.735 15.7529 102.269 14.0552 100.103 14.0552C97.9362 14.0552 96.4693 15.7529 96.4693 17.9737C96.4693 20.1968 97.9362 21.8937 100.103 21.8937C102.269 21.8937 103.735 20.196 103.735 17.9737ZM93.9539 17.9737C93.9539 14.4583 96.6793 11.8683 100.103 11.8683C103.526 11.8683 106.251 14.4583 106.251 17.9737C106.251 21.4906 103.526 24.0814 100.103 24.0814C96.6793 24.0814 93.9539 21.4906 93.9539 17.9737ZM113.72 18.3937C113.127 17.8344 112.305 16.7668 112.305 16.7668C112.305 16.7668 112.481 18.0791 112.481 18.936V23.9237H110.192V11.9206H110.436L116.427 17.5552C117.004 18.0968 117.824 19.1806 117.824 19.1806C117.824 19.1806 117.668 17.8344 117.668 17.0129V12.026H119.955V24.0275H119.712L113.72 18.3937Z" fill="white"/>
</svg>
