<svg width="16" height="17" viewBox="0 0 16 17" fill="none" xmlns="http://www.w3.org/2000/svg">
<path fill-rule="evenodd" clip-rule="evenodd" d="M11.7333 10.5063C10.6667 11.5729 10.6667 12.6396 9.6 12.6396C8.53333 12.6396 7.46667 11.5729 6.4 10.5063C5.33333 9.43958 4.26667 8.37292 4.26667 7.30625C4.26667 6.23958 5.33333 6.23958 6.4 5.17292C7.46667 4.10625 4.26667 0.90625 3.2 0.90625C2.13333 0.90625 0 4.10625 0 4.10625C0 6.23958 2.192 10.5649 4.26667 12.6396C6.34133 14.7143 10.6667 16.9062 12.8 16.9062C12.8 16.9062 16 14.7729 16 13.7063C16 12.6396 12.8 9.43958 11.7333 10.5063Z" fill="black"/>
</svg>
