<svg width="16" height="17" viewBox="0 0 16 17" fill="none" xmlns="http://www.w3.org/2000/svg">
<path fill-rule="evenodd" clip-rule="evenodd" d="M16 8.90625C16 13.3243 12.418 16.9062 8 16.9062C3.582 16.9062 0 13.3243 0 8.90625C0 4.48825 3.582 0.90625 8 0.90625C12.418 0.90625 16 4.48825 16 8.90625ZM7.52667 9.96625H8.53333C8.69533 9.96625 8.78267 9.85358 8.78267 9.70425V9.29358C8.78267 8.98558 9.10533 8.72958 9.48467 8.43025C10.0227 8.00425 10.674 7.48958 10.674 6.60558C10.674 5.38625 9.56667 4.51492 8.26 4.51492C6.66667 4.51492 5.82067 5.61025 5.82067 5.61025C5.734 5.69692 5.72067 5.84692 5.82067 5.93358L6.40533 6.50625C6.49267 6.58092 6.58 6.58092 6.67933 6.51892C6.73533 6.48225 6.79533 6.42958 6.864 6.37025C7.10067 6.16358 7.43467 5.87158 8.02333 5.87158C8.64533 5.87158 9.01867 6.25758 9.01867 6.70492C9.01867 7.10758 8.65 7.41958 8.25267 7.75558C7.79 8.14692 7.28933 8.57092 7.28933 9.20692V9.72958C7.28933 9.86625 7.40133 9.96558 7.52533 9.96558L7.52667 9.96625ZM8.024 13.4749C7.464 13.4749 7.004 13.0149 7.004 12.4549C7.004 11.8949 7.464 11.4216 8.024 11.4216C8.584 11.4216 9.05733 11.8949 9.05733 12.4549C9.05733 13.0149 8.584 13.4749 8.024 13.4749Z" fill="black"/>
</svg>
