<svg width="139" height="42" viewBox="0 0 139 42" fill="none" xmlns="http://www.w3.org/2000/svg">
<path d="M132.546 0.90625H6.5459C3.78447 0.90625 1.5459 3.14483 1.5459 5.90625V35.9062C1.5459 38.6677 3.78447 40.9062 6.5459 40.9062H132.546C135.307 40.9062 137.546 38.6677 137.546 35.9062V5.90625C137.546 3.14483 135.307 0.90625 132.546 0.90625Z" fill="black" stroke="white"/>
<path d="M27.0527 34.8073H20.6827L15.6227 27.8983H13.9197V34.7963H8.30566V14.0693H16.3427C20.9787 14.0693 24.7647 17.1753 24.7647 20.9953C24.7647 23.3273 23.3147 25.4103 21.1117 26.6823L27.0517 34.8103M19.1587 20.9923C19.16 20.5357 19.0704 20.0833 18.8951 19.6617C18.7198 19.24 18.4623 18.8575 18.1377 18.5363C17.4755 17.8819 16.5826 17.5141 15.6517 17.5123H13.9197V24.4443H15.6557C17.5877 24.4363 19.1517 22.8943 19.1577 20.9923H19.1587Z" fill="white"/>
<path d="M41.4121 26.7943C41.4198 28.4517 40.9356 30.0742 40.0208 31.4563C39.1059 32.8385 37.8016 33.9181 36.2729 34.5586C34.7442 35.1991 33.0598 35.3717 31.433 35.0544C29.8062 34.7372 28.3101 33.9444 27.134 32.7765C25.9579 31.6086 25.1548 30.118 24.8263 28.4934C24.4978 26.8688 24.6587 25.1833 25.2886 23.6502C25.9184 22.1171 26.989 20.8053 28.3648 19.8809C29.7405 18.9565 31.3596 18.4611 33.0171 18.4573C34.1161 18.452 35.2054 18.6637 36.2225 19.0801C37.2396 19.4965 38.1646 20.1094 38.9444 20.8839C39.7243 21.6583 40.3437 22.579 40.7671 23.5932C41.1905 24.6075 41.4097 25.6952 41.4121 26.7943ZM33.0171 22.4123C31.5721 22.4123 30.3511 24.3753 30.3511 26.7943C30.3511 29.2143 31.5711 31.1743 33.0171 31.1743C34.4891 31.1743 35.7151 29.2153 35.7151 26.7943C35.7151 24.3743 34.4941 22.4123 33.0171 22.4123ZM54.4921 18.8723L48.1321 25.1573V18.8553H42.6091V34.8703H48.1321V28.3723L54.7741 34.8703H61.7181L53.2821 26.5323L60.2721 19.6303V29.1423C60.2721 32.3003 62.1901 35.2093 67.0281 35.2093C69.3281 35.2093 71.4301 33.9213 72.4531 32.7593L74.9381 34.8733H76.1141V18.8733H70.6061V29.2353C69.9841 30.3073 69.1161 30.9833 67.7791 30.9833C66.4191 30.9833 65.7961 30.1853 65.7961 27.6433V18.8733L54.4921 18.8723ZM78.3081 20.4513C78.0435 20.4513 77.7898 20.3462 77.6027 20.1591C77.4157 19.9721 77.3106 19.7184 77.3106 19.4538C77.3106 19.1892 77.4157 18.9355 77.6027 18.7485C77.7898 18.5614 78.0435 18.4563 78.3081 18.4563C78.5726 18.4563 78.8263 18.5614 79.0134 18.7485C79.2005 18.9355 79.3056 19.1892 79.3056 19.4538C79.3056 19.7184 79.2005 19.9721 79.0134 20.1591C78.8263 20.3462 78.5726 20.4513 78.3081 20.4513ZM78.3081 18.5553C78.1876 18.5513 78.0675 18.5715 77.9549 18.6149C77.8424 18.6582 77.7398 18.7238 77.6531 18.8076C77.5664 18.8914 77.4975 18.9918 77.4504 19.1029C77.4033 19.2139 77.3791 19.3332 77.3791 19.4538C77.3791 19.5744 77.4033 19.6937 77.4504 19.8047C77.4975 19.9158 77.5664 20.0162 77.6531 20.1C77.7398 20.1838 77.8424 20.2494 77.9549 20.2927C78.0675 20.3361 78.1876 20.3563 78.3081 20.3523C78.5412 20.3445 78.7621 20.2465 78.9243 20.0788C79.0864 19.9111 79.1771 19.687 79.1771 19.4538C79.1771 19.2206 79.0864 18.9965 78.9243 18.8288C78.7621 18.6611 78.5412 18.5631 78.3081 18.5553Z" fill="white"/>
<path d="M78.1079 18.8563H78.6329C78.6947 18.8526 78.7567 18.8613 78.8151 18.8819C78.8735 18.9025 78.9271 18.9346 78.9729 18.9763C79.0369 19.0463 79.0729 19.1393 79.0699 19.2343C79.0733 19.3181 79.0471 19.4003 78.9959 19.4667C78.9447 19.5331 78.8718 19.5793 78.7899 19.5973L79.1079 20.0523H78.8639L78.5739 19.6333H78.3139V20.0523H78.1079V18.8563ZM78.6179 19.4513C78.7699 19.4513 78.8589 19.3713 78.8589 19.2513C78.8589 19.1213 78.7689 19.0513 78.6159 19.0513H78.3099V19.4543L78.6179 19.4513Z" fill="white"/>
<path d="M11.7099 4.49928H12.3609L15.2139 11.2773H14.5059L13.7679 9.47728H10.1779L9.41293 11.2773H8.75293L11.7099 4.49928ZM12.0069 5.18928L10.4269 8.90328H13.5389L12.0059 5.18828L12.0069 5.18928ZM15.3689 6.85428H16.0199L17.4949 10.6543L18.9309 6.85428H19.5139L17.7719 11.2773H17.1789L15.3689 6.85428ZM23.9959 9.42028C23.9967 9.77437 24.0034 10.1284 24.0159 10.4823C24.0219 10.6293 24.0299 10.7663 24.0399 10.8943C24.0499 11.0213 24.0639 11.1493 24.0829 11.2773H23.5469C23.5068 11.0401 23.4874 10.7998 23.4889 10.5593H23.4699C23.3271 10.8233 23.1134 11.0421 22.8529 11.1913C22.6069 11.3253 22.2959 11.3913 21.9189 11.3913C21.7279 11.3913 21.5389 11.3683 21.3549 11.3203C21.1761 11.2753 21.0072 11.1973 20.8569 11.0903C20.7081 10.9832 20.5851 10.8441 20.4969 10.6833C20.3999 10.4975 20.3524 10.2898 20.3589 10.0803C20.3589 9.74228 20.4449 9.47428 20.6179 9.27628C20.7905 9.0783 21.0088 8.92553 21.2539 8.83128C21.5059 8.73128 21.7739 8.66828 22.0579 8.63928C22.3419 8.61128 22.5929 8.59628 22.8099 8.59628H23.4799V8.32828C23.4799 7.94528 23.3619 7.67128 23.1259 7.50528C22.8899 7.33928 22.5929 7.25628 22.2359 7.25628C21.7249 7.25628 21.2749 7.42228 20.8859 7.75428L20.5509 7.36128C20.7609 7.15728 21.0229 7.00228 21.3359 6.89728C21.6479 6.79228 21.9479 6.73928 22.2359 6.73928C22.7709 6.73928 23.1989 6.86528 23.5179 7.11728C23.8379 7.36928 23.9969 7.77728 23.9969 8.33728L23.9959 9.42028ZM22.8479 9.05628C22.6059 9.05628 22.3709 9.07228 22.1439 9.10428C21.9179 9.13628 21.7139 9.19028 21.5319 9.26628C21.3644 9.33271 21.2149 9.43792 21.0959 9.57328C20.9851 9.70739 20.9271 9.8774 20.9329 10.0513C20.9329 10.1853 20.9629 10.3053 21.0239 10.4113C21.0849 10.5163 21.1639 10.6013 21.2589 10.6693C21.3549 10.7363 21.4619 10.7873 21.5789 10.8223C21.6979 10.8573 21.8169 10.8753 21.9389 10.8753C22.2449 10.8753 22.4969 10.8303 22.6949 10.7413C22.8929 10.6513 23.0509 10.5353 23.1689 10.3913C23.2869 10.2483 23.3689 10.0853 23.4129 9.90328C23.4573 9.72332 23.4798 9.53865 23.4799 9.35328V9.05628H22.8479ZM25.7839 6.85428H26.4499V11.2773H25.7839V6.85428ZM25.6169 5.10228C25.6169 4.98128 25.6649 4.87928 25.7609 4.79628C25.8601 4.71203 25.9869 4.66749 26.1169 4.67128C26.2569 4.67128 26.3769 4.71328 26.4719 4.79628C26.5176 4.83306 26.5544 4.87969 26.5795 4.93268C26.6046 4.98567 26.6174 5.04365 26.6169 5.10228C26.6174 5.16092 26.6046 5.2189 26.5795 5.27189C26.5544 5.32488 26.5176 5.3715 26.4719 5.40828C26.3731 5.49231 26.2466 5.53683 26.1169 5.53328C25.9869 5.53708 25.8601 5.49254 25.7609 5.40828C25.7154 5.37141 25.6789 5.32473 25.6539 5.27175C25.629 5.21877 25.6164 5.16084 25.6169 5.10228ZM28.1939 4.04028H28.7689V11.2773H28.1939V4.04028ZM33.9689 9.42028C33.9694 9.77436 33.9757 10.1284 33.9879 10.4823C33.9939 10.6293 34.0019 10.7663 34.0119 10.8943C34.0219 11.0213 34.0359 11.1493 34.0549 11.2773H33.5189C33.4791 11.0401 33.4601 10.7998 33.4619 10.5593H33.4419C33.2991 10.8233 33.0854 11.0421 32.8249 11.1913C32.5789 11.3253 32.2679 11.3913 31.8919 11.3913C31.6999 11.3913 31.5119 11.3683 31.3269 11.3203C31.1481 11.2753 30.9792 11.1973 30.8289 11.0903C30.6805 10.983 30.5578 10.844 30.4699 10.6833C30.3726 10.4976 30.3247 10.2899 30.3309 10.0803C30.3309 9.74228 30.4169 9.47428 30.5899 9.27628C30.7625 9.0783 30.9808 8.92553 31.2259 8.83128C31.4779 8.73128 31.7459 8.66828 32.0299 8.63928C32.3139 8.61128 32.5649 8.59628 32.7819 8.59628H33.4519V8.32828C33.4519 7.94528 33.3339 7.67128 33.0979 7.50528C32.8619 7.33928 32.5649 7.25628 32.2079 7.25628C31.6969 7.25628 31.2469 7.42228 30.8579 7.75428L30.5229 7.36128C30.7329 7.15728 30.9949 7.00228 31.3079 6.89728C31.6199 6.79228 31.9199 6.73928 32.2079 6.73928C32.7439 6.73928 33.1709 6.86528 33.4899 7.11728C33.8099 7.36928 33.9689 7.77728 33.9689 8.33728V9.42028ZM32.8199 9.05628C32.5779 9.05628 32.3429 9.07228 32.1169 9.10428C31.8899 9.13628 31.6859 9.19028 31.5039 9.26628C31.3364 9.33271 31.1869 9.43792 31.0679 9.57328C30.9575 9.70754 30.8998 9.87753 30.9059 10.0513C30.9059 10.1853 30.9359 10.3053 30.9959 10.4113C31.0569 10.5163 31.1359 10.6013 31.2309 10.6693C31.3269 10.7363 31.4339 10.7873 31.5509 10.8223C31.6699 10.8573 31.7889 10.8753 31.9109 10.8753C32.2169 10.8753 32.4689 10.8303 32.6669 10.7413C32.8649 10.6513 33.0229 10.5353 33.1409 10.3913C33.2589 10.2483 33.3409 10.0853 33.3849 9.90328C33.4293 9.72332 33.4518 9.53865 33.4519 9.35328V9.05628H32.8199ZM35.5119 4.04028H36.0869V7.63028H36.1059C36.1934 7.479 36.3068 7.34428 36.4409 7.23228C36.5749 7.12028 36.7209 7.02828 36.8759 6.95528C37.0332 6.8815 37.1987 6.82678 37.3689 6.79228C37.5419 6.75728 37.7109 6.73928 37.8769 6.73928C38.2149 6.73928 38.5269 6.79728 38.8099 6.91128C39.0939 7.02628 39.3399 7.18728 39.5469 7.39528C39.7549 7.60228 39.9159 7.84828 40.0309 8.13228C40.1459 8.41628 40.2029 8.72728 40.2029 9.06528C40.2029 9.40428 40.1459 9.71528 40.0309 9.99928C39.9159 10.2833 39.7549 10.5293 39.5469 10.7363C39.3365 10.9455 39.0858 11.1098 38.8099 11.2193C38.5131 11.3368 38.1962 11.3956 37.8769 11.3923C37.7109 11.3923 37.5419 11.3743 37.3689 11.3393C37.1987 11.3048 37.0332 11.2501 36.8759 11.1763C36.7197 11.103 36.5735 11.0099 36.4409 10.8993C36.3068 10.7873 36.1934 10.6526 36.1059 10.5013H36.0859V11.2773H35.5119V4.04028ZM36.0289 9.06528C36.0295 9.30314 36.0772 9.53853 36.1692 9.75787C36.2612 9.97722 36.3957 10.1762 36.5649 10.3433C36.7309 10.5063 36.9249 10.6353 37.1489 10.7313C37.3729 10.8273 37.6149 10.8753 37.8769 10.8753C38.1449 10.8753 38.3869 10.8273 38.6039 10.7313C38.8131 10.6422 39.0015 10.5107 39.1572 10.3451C39.313 10.1795 39.4327 9.98346 39.5089 9.76928C39.5889 9.54928 39.6289 9.31428 39.6289 9.06528C39.6289 8.81628 39.5889 8.58228 39.5089 8.36228C39.4327 8.1481 39.313 7.95204 39.1572 7.78647C39.0015 7.62089 38.8131 7.4894 38.6039 7.40028C38.3743 7.30192 38.1267 7.25286 37.8769 7.25628C37.6149 7.25628 37.3729 7.30428 37.1489 7.40028C36.9318 7.49168 36.7337 7.62294 36.5649 7.78728C36.3957 7.95439 36.2612 8.15335 36.1692 8.3727C36.0772 8.59204 36.0295 8.82743 36.0289 9.06528ZM41.7179 4.04028H42.2919V11.2773H41.7179V4.04028ZM47.9619 10.4443C47.7379 10.7823 47.4619 11.0243 47.1339 11.1713C46.8039 11.3183 46.4429 11.3913 46.0469 11.3913C45.7089 11.3913 45.4019 11.3343 45.1279 11.2193C44.8594 11.1088 44.6171 10.9431 44.4168 10.7329C44.2164 10.5227 44.0625 10.2728 43.9649 9.99928C43.8565 9.69689 43.8029 9.37752 43.8069 9.05628C43.8069 8.72428 43.8609 8.41828 43.9699 8.13628C44.0713 7.86571 44.2261 7.61827 44.425 7.40869C44.624 7.19911 44.863 7.03166 45.1279 6.91628C45.3959 6.79828 45.6929 6.73928 46.0179 6.73928C46.3569 6.73928 46.6549 6.79928 46.9129 6.91628C47.1556 7.02449 47.3737 7.18091 47.554 7.37602C47.7344 7.57114 47.8731 7.80088 47.9619 8.05128C48.0509 8.30028 48.0959 8.55128 48.0959 8.80728V9.20928H44.3809C44.3809 9.33028 44.4049 9.48528 44.4529 9.67328C44.5676 10.0992 44.8462 10.4623 45.2279 10.6833C45.4419 10.8113 45.7179 10.8753 46.0569 10.8753C46.3499 10.8753 46.6339 10.8053 46.9089 10.6643C47.1829 10.5243 47.3939 10.3323 47.5399 10.0903L47.9619 10.4443ZM47.5219 8.69228C47.5219 8.49428 47.4819 8.30928 47.4019 8.13728C47.2408 7.78562 46.9487 7.51077 46.5879 7.37128C46.398 7.29436 46.1949 7.2553 45.9899 7.25628C45.6769 7.25628 45.4169 7.32028 45.2099 7.44828C44.9886 7.58166 44.7996 7.76237 44.6565 7.97746C44.5133 8.19255 44.4195 8.43666 44.3819 8.69228H47.5219ZM51.8909 9.06628C51.8909 8.72728 51.9479 8.41628 52.0629 8.13228C52.1695 7.85547 52.3327 7.60397 52.5421 7.39388C52.7515 7.18379 53.0025 7.01976 53.2789 6.91228C53.5659 6.79728 53.8789 6.73928 54.2169 6.73928C54.5549 6.73928 54.8669 6.79728 55.1509 6.91128C55.4349 7.02628 55.6809 7.18728 55.8879 7.39528C56.0949 7.60228 56.2559 7.84828 56.3709 8.13228C56.4859 8.41628 56.5429 8.72728 56.5429 9.06528C56.5429 9.40428 56.4859 9.71528 56.3709 9.99928C56.2559 10.2833 56.0949 10.5293 55.8879 10.7363C55.6775 10.9455 55.4268 11.1098 55.1509 11.2193C54.8537 11.3369 54.5365 11.3957 54.2169 11.3923C53.8789 11.3923 53.5669 11.3343 53.2789 11.2193C53.0025 11.1118 52.7515 10.9478 52.5421 10.7377C52.3327 10.5276 52.1695 10.2761 52.0629 9.99928C51.9456 9.70204 51.8872 9.38582 51.8909 9.06628ZM52.4649 9.06628C52.4649 9.31428 52.5049 9.54928 52.5849 9.76928C52.6611 9.98346 52.7809 10.1795 52.9366 10.3451C53.0924 10.5107 53.2808 10.6422 53.4899 10.7313C53.7069 10.8273 53.9499 10.8753 54.2169 10.8753C54.4849 10.8753 54.7269 10.8273 54.9449 10.7313C55.1541 10.6422 55.3425 10.5107 55.4982 10.3451C55.654 10.1795 55.7737 9.98346 55.8499 9.76928C55.9299 9.54928 55.9689 9.31428 55.9689 9.06528C55.9689 8.81628 55.9289 8.58228 55.8489 8.36228C55.7729 8.1482 55.6532 7.95219 55.4977 7.78662C55.3421 7.62106 55.1539 7.48951 54.9449 7.40028C54.715 7.30178 54.467 7.25272 54.2169 7.25628C53.9489 7.25628 53.7069 7.30428 53.4899 7.40028C53.2808 7.4894 53.0924 7.62089 52.9366 7.78647C52.7809 7.95204 52.6611 8.1481 52.5849 8.36228C52.5049 8.58228 52.4649 8.81728 52.4649 9.06628ZM57.9619 8.09828C57.9612 7.99788 57.9579 7.89751 57.9519 7.79728C57.9456 7.67735 57.9409 7.55734 57.9379 7.43728C57.9352 7.32421 57.9305 7.2112 57.9239 7.09828C57.9183 7.01706 57.915 6.93569 57.9139 6.85428H58.4889C58.4949 7.02028 58.4999 7.17928 58.5029 7.33328C58.5059 7.48628 58.5139 7.58528 58.5269 7.62928H58.5559C58.6851 7.37088 58.8839 7.15371 59.1299 7.00228C59.3979 6.82728 59.7109 6.73928 60.0679 6.73928C60.4129 6.73928 60.6939 6.79328 60.9109 6.90228C61.1279 7.01028 61.2989 7.15228 61.4229 7.32828C61.5469 7.50328 61.6329 7.70628 61.6809 7.93628C61.7289 8.16628 61.7529 8.40228 61.7529 8.64428V11.2773H61.1789V8.67328C61.1789 8.49428 61.1629 8.32028 61.1309 8.15128C61.1025 7.99096 61.046 7.83693 60.9639 7.69628C60.8827 7.56135 60.7667 7.45081 60.6279 7.37628C60.4849 7.29628 60.2979 7.25628 60.0679 7.25628C59.8579 7.25628 59.6579 7.29328 59.4699 7.36628C59.2834 7.43852 59.1164 7.55322 58.9819 7.70128C58.8449 7.85128 58.7359 8.03928 58.6559 8.26628C58.5759 8.49328 58.5359 8.75928 58.5359 9.06628V11.2763H57.9619V8.09928V8.09828Z" fill="white"/>
<path d="M85.7598 18.4602H88.1438C88.5778 18.4602 88.9348 18.5192 89.2158 18.6372C89.4958 18.7552 89.7188 18.9052 89.8808 19.0872C90.0438 19.2692 90.1568 19.4732 90.2208 19.6992C90.2848 19.9262 90.3168 20.1442 90.3168 20.3552C90.3168 20.5652 90.2848 20.7852 90.2208 21.0112C90.1568 21.2372 90.0438 21.4412 89.8808 21.6232C89.6953 21.8208 89.4681 21.9745 89.2158 22.0732C88.9358 22.1912 88.5778 22.2502 88.1438 22.2502H86.6788V25.2372H85.7598V18.4602ZM86.6798 21.4462H87.8848C88.0648 21.4462 88.2408 21.4322 88.4168 21.4032C88.5918 21.3752 88.7488 21.3222 88.8858 21.2452C89.024 21.1676 89.1381 21.0534 89.2158 20.9152C89.2988 20.7712 89.3408 20.5852 89.3408 20.3552C89.3408 20.1252 89.2988 19.9392 89.2158 19.7952C89.1381 19.6571 89.024 19.5429 88.8858 19.4652C88.7395 19.3856 88.5805 19.3321 88.4158 19.3072C88.2406 19.2786 88.0633 19.2642 87.8858 19.2642H86.6788L86.6798 21.4462ZM91.5798 18.0002H92.4408V25.2372H91.5798V18.0002ZM94.1258 21.2552C94.3678 21.0322 94.6478 20.8642 94.9668 20.7522C95.2868 20.6412 95.6058 20.5852 95.9248 20.5852C96.2568 20.5852 96.5418 20.6262 96.7818 20.7092C97.0208 20.7922 97.2168 20.9042 97.3698 21.0442C97.5228 21.1842 97.6368 21.3462 97.7098 21.5282C97.7838 21.7102 97.8198 21.8992 97.8198 22.0982V24.4142C97.8198 24.5742 97.8228 24.7202 97.8298 24.8542C97.8358 24.9882 97.8458 25.1162 97.8588 25.2372H97.0928C97.0728 25.0072 97.0638 24.7772 97.0638 24.5482H97.0438C96.8538 24.8422 96.6268 25.0492 96.3648 25.1702C96.0784 25.2967 95.7678 25.3588 95.4548 25.3522C95.2448 25.3522 95.0448 25.3232 94.8528 25.2662C94.67 25.2136 94.4992 25.1259 94.3498 25.0082C94.1981 24.8874 94.0771 24.7325 93.9965 24.5562C93.9159 24.3798 93.8779 24.187 93.8858 23.9932C93.8858 23.6992 93.9508 23.4532 94.0818 23.2562C94.2118 23.0582 94.3918 22.8962 94.6178 22.7722C94.8448 22.6482 95.1088 22.5582 95.4128 22.5042C95.7158 22.4502 96.0398 22.4232 96.3838 22.4232H97.0158V22.2312C97.0148 22.0416 96.9567 21.8566 96.8492 21.7004C96.7416 21.5441 96.5896 21.4239 96.4128 21.3552C96.2597 21.2981 96.0971 21.2709 95.9338 21.2752C95.6661 21.2714 95.4011 21.3285 95.1588 21.4422C95.0603 21.4876 94.9671 21.5436 94.8808 21.6092C94.7978 21.6732 94.7188 21.7342 94.6418 21.7912L94.1258 21.2552ZM96.5558 23.0552C96.3518 23.0552 96.1428 23.0652 95.9298 23.0882C95.7305 23.1076 95.5344 23.1512 95.3458 23.2182C95.1698 23.2812 95.0258 23.3712 94.9148 23.4852C94.8588 23.5437 94.8151 23.6127 94.7863 23.6883C94.7574 23.7638 94.744 23.8444 94.7468 23.9252C94.7468 24.1872 94.8348 24.3752 95.0108 24.4912C95.1858 24.6052 95.4238 24.6632 95.7238 24.6632C95.9598 24.6632 96.1608 24.6232 96.3268 24.5432C96.4783 24.4737 96.6126 24.3716 96.7201 24.2442C96.8276 24.1168 96.9057 23.9673 96.9488 23.8062C96.9938 23.6502 97.0158 23.4952 97.0158 23.3422V23.0552H96.5558ZM98.8238 20.7002H99.8198L101.17 24.2422H101.189L102.472 20.7002H103.4L101.246 26.2142C101.175 26.3982 101.096 26.5784 101.007 26.7542C100.93 26.908 100.83 27.0488 100.71 27.1712C100.591 27.2885 100.45 27.3798 100.294 27.4392C100.102 27.508 99.8993 27.5405 99.6958 27.5352C99.5661 27.5351 99.4365 27.5271 99.3078 27.5112C99.1777 27.4956 99.0505 27.462 98.9298 27.4112L99.0348 26.6252C99.2068 26.6952 99.3798 26.7312 99.5518 26.7312C99.6674 26.7341 99.7825 26.7162 99.8918 26.6782C99.9818 26.645 100.064 26.5928 100.132 26.5252C100.2 26.4565 100.256 26.3771 100.299 26.2902C100.343 26.2002 100.388 26.0992 100.433 25.9842L100.71 25.2662L98.8238 20.7002ZM105.103 23.2842C105.103 23.4822 105.146 23.6632 105.233 23.8252C105.319 23.9882 105.432 24.1272 105.573 24.2422C105.713 24.3572 105.875 24.4462 106.061 24.5102C106.246 24.5742 106.437 24.6052 106.635 24.6052C106.903 24.6052 107.135 24.5432 107.334 24.4192C107.541 24.2859 107.725 24.1193 107.879 23.9262L108.53 24.4242C108.052 25.0432 107.382 25.3522 106.52 25.3522C106.163 25.3522 105.839 25.2922 105.548 25.1702C105.27 25.0575 105.019 24.887 104.812 24.6699C104.605 24.4528 104.446 24.1942 104.347 23.9112C104.236 23.6093 104.181 23.2898 104.184 22.9682C104.184 22.6302 104.244 22.3162 104.361 22.0262C104.479 21.7362 104.642 21.4832 104.85 21.2692C105.057 21.0552 105.304 20.8882 105.591 20.7672C105.879 20.6452 106.191 20.5852 106.53 20.5852C106.932 20.5852 107.272 20.6552 107.55 20.7952C107.827 20.9352 108.055 21.1192 108.234 21.3452C108.412 21.5722 108.542 21.8282 108.621 22.1122C108.701 22.3962 108.741 22.6842 108.741 22.9782V23.2842H105.103ZM107.822 22.5952C107.818 22.4164 107.787 22.2392 107.732 22.0692C107.68 21.9145 107.597 21.7725 107.487 21.6522C107.373 21.531 107.234 21.4364 107.08 21.3752C106.898 21.3049 106.704 21.271 106.51 21.2752C106.232 21.2733 105.959 21.3536 105.727 21.5061C105.494 21.6586 105.312 21.8764 105.203 22.1322C105.137 22.2872 105.103 22.4422 105.103 22.5952H107.822ZM110.071 20.7002H110.932V21.3982H110.952C111.01 21.2764 111.088 21.1649 111.182 21.0682C111.277 20.9692 111.384 20.8852 111.502 20.8152C111.62 20.7452 111.749 20.6892 111.89 20.6472C112.03 20.6062 112.17 20.5852 112.31 20.5852C112.451 20.5852 112.579 20.6042 112.694 20.6422L112.655 21.5712C112.585 21.5522 112.515 21.5362 112.445 21.5232C112.375 21.5102 112.305 21.5032 112.235 21.5032C111.813 21.5032 111.491 21.6222 111.267 21.8582C111.044 22.0942 110.932 22.4612 110.932 22.9582V25.2382H110.071V20.7002ZM116.321 21.8392C116.216 21.7097 116.088 21.6011 115.943 21.5192C115.774 21.4283 115.584 21.3835 115.393 21.3892C115.188 21.3892 115.011 21.4322 114.861 21.5192C114.792 21.5545 114.734 21.6086 114.694 21.6753C114.654 21.742 114.634 21.8186 114.636 21.8962C114.636 22.0302 114.679 22.1392 114.766 22.2222C114.851 22.3052 114.953 22.3722 115.072 22.4222C115.19 22.4742 115.316 22.5122 115.45 22.5382C115.584 22.5632 115.699 22.5862 115.794 22.6052C115.979 22.6492 116.154 22.7042 116.316 22.7672C116.479 22.8312 116.619 22.9142 116.737 23.0172C116.855 23.1182 116.947 23.2432 117.015 23.3902C117.082 23.5362 117.115 23.7152 117.115 23.9262C117.121 24.1445 117.071 24.3608 116.969 24.5537C116.866 24.7465 116.715 24.9094 116.531 25.0262C116.352 25.1445 116.152 25.2292 115.943 25.2762C115.723 25.3262 115.501 25.3522 115.277 25.3522C114.939 25.3591 114.603 25.3007 114.287 25.1802C114.003 25.0652 113.749 24.8542 113.526 24.5482L114.176 24.0122C114.316 24.1522 114.473 24.2772 114.646 24.3852C114.818 24.4942 115.028 24.5482 115.277 24.5482C115.386 24.5482 115.496 24.5372 115.607 24.5142C115.719 24.4922 115.818 24.4572 115.904 24.4092C115.986 24.3645 116.058 24.3024 116.115 24.2272C116.169 24.1541 116.197 24.0652 116.196 23.9742C116.198 23.9162 116.188 23.8584 116.168 23.8042C116.147 23.7499 116.116 23.7003 116.076 23.6582C115.995 23.574 115.897 23.507 115.79 23.4612C115.675 23.4127 115.556 23.3746 115.435 23.3472C115.325 23.3217 115.215 23.2976 115.105 23.2752C114.927 23.2327 114.752 23.1817 114.579 23.1222C114.421 23.0689 114.273 22.9913 114.139 22.8922C114.01 22.7957 113.905 22.6713 113.832 22.5282C113.75 22.3582 113.711 22.1709 113.717 21.9822C113.712 21.7756 113.758 21.5709 113.853 21.387C113.947 21.203 114.086 21.0457 114.257 20.9292C114.421 20.8152 114.606 20.7292 114.813 20.6712C115.311 20.5324 115.841 20.5627 116.321 20.7572C116.601 20.8722 116.825 21.0632 116.991 21.3312L116.321 21.8392Z" fill="white"/>
<path d="M91.7059 35.2091H90.4699L89.6369 34.3091C89.3499 34.6541 89.0449 34.9191 88.7229 35.1041C88.4009 35.2891 88.0129 35.3811 87.5599 35.3811C87.1769 35.3811 86.8449 35.3261 86.5639 35.2141C86.304 35.116 86.0675 34.9644 85.8699 34.7691C85.6926 34.5912 85.5556 34.3775 85.4679 34.1421C85.3821 33.9108 85.3384 33.6659 85.3389 33.4191C85.3389 33.1831 85.3809 32.9671 85.4639 32.7731C85.5459 32.5781 85.6579 32.4011 85.7989 32.2411C85.9389 32.0811 86.1029 31.9381 86.2919 31.8111C86.4788 31.6842 86.6754 31.5722 86.8799 31.4761C86.6718 31.2575 86.4843 31.0202 86.3199 30.7671C86.1594 30.5092 86.0781 30.2098 86.0859 29.9061C86.0859 29.6501 86.1359 29.4241 86.2339 29.2261C86.3339 29.0281 86.4649 28.8621 86.6309 28.7281C86.7969 28.5941 86.9889 28.4921 87.2059 28.4221C87.4229 28.3521 87.6529 28.3171 87.8949 28.3171C88.1309 28.3171 88.3559 28.3481 88.5699 28.4121C88.7839 28.4761 88.9699 28.5721 89.1299 28.6991C89.2899 28.8271 89.4159 28.9871 89.5079 29.1791C89.6009 29.3691 89.6469 29.5931 89.6469 29.8491C89.6469 30.0591 89.6049 30.2521 89.5219 30.4271C89.4391 30.6027 89.3294 30.7643 89.1969 30.9061C89.0619 31.0505 88.911 31.179 88.7469 31.2891C88.5838 31.3994 88.4145 31.5002 88.2399 31.5911L89.5799 32.9881L90.4319 31.6001H91.4749L90.1639 33.6301L91.7049 35.2101L91.7059 35.2091ZM88.7279 29.8491C88.7279 29.6251 88.6509 29.4481 88.4979 29.3171C88.3449 29.1871 88.1479 29.1211 87.9049 29.1211C87.6619 29.1211 87.4509 29.1891 87.2729 29.3261C87.0939 29.4641 87.0049 29.6601 87.0049 29.9161C87.0049 30.0301 87.0249 30.1391 87.0669 30.2411C87.1079 30.3431 87.1629 30.4411 87.2299 30.5371C87.2969 30.6331 87.3689 30.7231 87.4449 30.8061C87.5199 30.8873 87.5966 30.967 87.6749 31.0451C87.7961 30.9778 87.9158 30.9078 88.0339 30.8351C88.1579 30.7581 88.2719 30.6711 88.3739 30.5751C88.4759 30.4801 88.5599 30.3731 88.6269 30.2551C88.6953 30.1306 88.7298 29.9902 88.7269 29.8481L88.7279 29.8491ZM87.4549 32.0121C87.3209 32.0881 87.1849 32.1721 87.0479 32.2611C86.9109 32.3501 86.7879 32.4491 86.6789 32.5571C86.5713 32.6646 86.4824 32.7893 86.4159 32.9261C86.3489 33.0631 86.3159 33.2181 86.3159 33.3901C86.3159 33.5561 86.3509 33.7101 86.4209 33.8551C86.4909 33.9981 86.5869 34.1251 86.7079 34.2331C86.8289 34.3411 86.9649 34.4261 87.1149 34.4861C87.4162 34.6005 87.7482 34.6055 88.0529 34.5001C88.1969 34.4501 88.3309 34.3841 88.4549 34.3041C88.5799 34.2241 88.6949 34.1341 88.7999 34.0321C88.9049 33.9291 89.0019 33.8241 89.0919 33.7161L87.4549 32.0121ZM97.0219 29.2931H94.8399V28.4311H100.124V29.2931H97.9409V35.2091H97.0219V29.2931ZM100.308 28.4311H101.371L103.362 33.9451H103.382L105.449 28.4311H106.454L103.784 35.2091H102.922L100.308 28.4311ZM109.596 31.8111C109.491 31.6812 109.363 31.5723 109.218 31.4901C109.049 31.3992 108.859 31.3544 108.668 31.3601C108.463 31.3601 108.286 31.4041 108.136 31.4901C108.066 31.5254 108.009 31.5797 107.969 31.6466C107.929 31.7135 107.909 31.7903 107.911 31.8681C107.911 32.0021 107.954 32.1111 108.041 32.1941C108.127 32.2771 108.229 32.3441 108.347 32.3941C108.465 32.4461 108.591 32.4841 108.725 32.5101C108.859 32.5351 108.974 32.5571 109.07 32.5771C109.255 32.6211 109.429 32.6751 109.591 32.7391C109.754 32.8031 109.895 32.8861 110.013 32.9891C110.131 33.0901 110.223 33.2151 110.29 33.3611C110.357 33.5081 110.39 33.6871 110.39 33.8981C110.397 34.1163 110.346 34.3325 110.244 34.5254C110.142 34.7183 109.991 34.8812 109.807 34.9981C109.627 35.1165 109.428 35.2012 109.218 35.2481C108.998 35.2981 108.776 35.3241 108.553 35.3241C108.215 35.3311 107.878 35.2727 107.562 35.1521C107.278 35.0371 107.024 34.8261 106.801 34.5201L107.451 33.9841C107.592 34.1241 107.749 34.2491 107.921 34.3571C108.093 34.4661 108.304 34.5201 108.553 34.5201C108.661 34.5201 108.771 34.5091 108.883 34.4861C108.995 34.4641 109.093 34.4291 109.18 34.3811C109.262 34.3363 109.334 34.2742 109.39 34.1991C109.444 34.1258 109.473 34.0365 109.472 33.9451C109.474 33.8873 109.464 33.8297 109.443 33.7756C109.423 33.7215 109.392 33.6721 109.352 33.6301C109.271 33.5457 109.173 33.4787 109.065 33.4331C108.951 33.3844 108.832 33.3459 108.711 33.3181C108.601 33.2929 108.491 33.2692 108.381 33.2471C108.203 33.2043 108.027 33.1529 107.854 33.0931C107.696 33.0398 107.548 32.9622 107.414 32.8631C107.285 32.7669 107.18 32.6428 107.107 32.5001C107.025 32.3301 106.986 32.1428 106.992 31.9541C106.987 31.7474 107.034 31.5427 107.128 31.3587C107.223 31.1748 107.362 31.0174 107.533 30.9011C107.696 30.7861 107.881 30.7011 108.088 30.6431C108.586 30.5043 109.117 30.5346 109.596 30.7291C109.877 30.8441 110.1 31.0351 110.266 31.3031L109.596 31.8111Z" fill="white"/>
</svg>
