<svg width="30" height="31" viewBox="0 0 30 31" fill="none" xmlns="http://www.w3.org/2000/svg">
<path fill-rule="evenodd" clip-rule="evenodd" d="M15 0.90625C6.75 0.90625 0 7.65625 0 15.9062C0 24.1562 6.75 30.9062 15 30.9062C23.25 30.9062 30 24.1562 30 15.9062C30 7.65625 23.25 0.90625 15 0.90625ZM21.75 12.8313V13.2063C21.75 17.2563 18.675 21.9813 12.975 21.9813C11.25 21.9813 9.6 21.4562 8.25 20.6313C8.475 20.6313 8.7 20.7062 9 20.7062C10.425 20.7062 11.775 20.1812 12.825 19.3563C11.475 19.3563 10.35 18.4562 9.975 17.2563C10.2 17.2563 10.35 17.3313 10.575 17.3313C10.875 17.3313 11.1 17.2563 11.4 17.2563C9.975 16.9562 8.925 15.7563 8.925 14.2563V14.1812C9.375 14.4062 9.825 14.5562 10.35 14.5562C9.525 14.0312 9 13.0563 9 12.0063C9 11.4062 9.15 10.8812 9.45 10.4312C10.95 12.3062 13.2 13.5062 15.825 13.6562C15.75 13.4312 15.75 13.2063 15.75 12.9812C15.75 11.2562 17.1 9.90625 18.825 9.90625C19.725 9.90625 20.475 10.2812 21.075 10.8813C21.75 10.7312 22.425 10.5063 23.025 10.1313C22.8 10.8813 22.275 11.4812 21.675 11.8563C22.275 11.7812 22.875 11.6312 23.475 11.4062C22.8 11.8562 22.35 12.3813 21.75 12.8313Z" fill="black"/>
</svg>
