<svg width="30" height="31" viewBox="0 0 30 31" fill="none" xmlns="http://www.w3.org/2000/svg">
<path fill-rule="evenodd" clip-rule="evenodd" d="M0 15.9062C0 7.65625 6.75 0.90625 15 0.90625C23.25 0.90625 30 7.65625 30 15.9062C30 24.1562 23.25 30.9062 15 30.9062C6.75 30.9062 0 24.1562 0 15.9062ZM24.15 19.5812C24.225 18.6062 24.3 17.6313 24.3 16.5813H24.375V15.1562C24.375 14.1812 24.375 13.1313 24.225 12.1562C24.225 12.1562 24 10.8813 23.475 10.2812C22.8363 9.6425 22.1975 9.5475 21.79 9.4875C21.7264 9.4786 21.6631 9.46818 21.6 9.45625C18.975 9.23125 15.075 9.23125 15.075 9.23125C15.075 9.23125 11.175 9.23125 8.55 9.45625C8.4925 9.46875 8.425 9.4775 8.34875 9.48875C7.92625 9.54875 7.24625 9.64625 6.675 10.2812C6.075 10.8813 5.925 12.1562 5.925 12.1562C5.85 13.1313 5.775 14.1062 5.775 15.1562V16.5813C5.775 17.5562 5.775 18.6062 5.925 19.5812C5.925 19.5812 6.15 20.8563 6.675 21.4563C7.2525 22.0975 7.995 22.19 8.47875 22.2513C8.56125 22.2612 8.635 22.27 8.7 22.2812C10.125 22.4312 15 22.5063 15 22.5063C15 22.5063 18.9 22.5063 21.525 22.2812C21.5825 22.2688 21.65 22.26 21.7262 22.2487C22.1488 22.1887 22.8287 22.0913 23.4 21.4563C24 20.8563 24.15 19.5812 24.15 19.5812ZM18.75 15.8312L12.75 19.0563V12.6812L18.75 15.8312Z" fill="black"/>
</svg>
